<?xml version="1.0" standalone="yes"?>

<svg version="1.1" viewBox="0.0 0.0 230.0 219.0" fill="none" stroke="none" stroke-linecap="square" stroke-miterlimit="10" clip-path="url(#p.0)" xmlns="http://www.w3.org/2000/svg" xmlns:xlink="http://www.w3.org/1999/xlink"><clipPath id="p.0"><path d="M0 0L230.0 0L230.0 219.0L0 219.0L0 0Z" clip-rule="nonzero"></path></clipPath><path d="M112.82667 164.6663L114.27548 164.6663L114.27548 209.64268L112.82667 209.64268Z" fill-rule="nonzero" fill="#000000"></path><path d="M189.44357 208.61482L189.44357 210.09514L112.81365 210.09514L112.81365 208.61482Z" fill-rule="nonzero" fill="#000000"></path><path d="M188.00906 164.6663L189.45789 164.6663L189.45789 209.64268L188.00906 209.64268Z" fill-rule="nonzero" fill="#000000"></path><path d="M114.26586 167.55118L187.99814 167.55118L187.99814 208.27559L114.26586 208.27559Z" fill-rule="nonzero" fill="#cfe2f3"></path><path d="M147.69554 4.538058L155.94751 4.538058L155.94751 167.4357L147.69554 167.4357Z" fill-rule="nonzero" stroke="#000000" stroke-width="2.0" stroke-linejoin="round" stroke-linecap="butt"></path><path d="M183.41325 17.4414L163.1408 25.192638L162.72346 24.082403L161.34239 27.15006L164.39276 28.523348L163.97543 27.41311L184.24791 19.661873Z" fill-rule="nonzero" fill="#000000"></path><path d="M187.24864 18.653687L187.24864 12.9193125L188.38927 12.9193125L189.74864 16.981812Q189.93614 17.544312 190.01427 17.825562Q190.12364 17.513062 190.32677 16.903687L191.70177 12.9193125L192.71739 12.9193125L192.71739 18.653687L191.98302 18.653687L191.98302 13.8568125L190.32677 18.653687L189.63927 18.653687L187.98302 13.7786875L187.98302 18.653687L187.24864 18.653687ZM196.69395 17.309937L197.4127 17.403687Q197.24083 18.044312 196.77989 18.395874Q196.31895 18.747437 195.58458 18.747437Q194.67833 18.747437 194.14708 18.184937Q193.61583 17.622437 193.61583 16.606812Q193.61583 15.5599375 194.15489 14.9818125Q194.69395 14.4036875 195.55333 14.4036875Q196.38145 14.4036875 196.9127 14.974Q197.44395 15.5443125 197.44395 16.575562Q197.44395 16.638062 197.42833 16.763062L194.33458 16.763062Q194.38145 17.434937 194.7252 17.802124Q195.06895 18.169312 195.6002 18.169312Q195.9752 18.169312 196.24864 17.966187Q196.52208 17.763062 196.69395 17.309937ZM194.38145 16.184937L196.69395 16.184937Q196.64708 15.6536875 196.42833 15.3880625Q196.1002 14.9818125 195.55333 14.9818125Q195.06895 14.9818125 194.74083 15.3099375Q194.4127 15.6380625 194.38145 16.184937ZM199.83067 18.028687L199.94005 18.638062Q199.64317 18.716187 199.4088 18.716187Q199.01817 18.716187 198.80724 18.591187Q198.5963 18.466187 198.51036 18.270874Q198.42442 18.075562 198.42442 17.434937L198.42442 15.0443125L197.9088 15.0443125L197.9088 14.4974375L198.42442 14.4974375L198.42442 13.4818125L199.12755 13.0599375L199.12755 14.4974375L199.83067 14.4974375L199.83067 15.0443125L199.12755 15.0443125L199.12755 17.481812Q199.12755 17.778687 199.16661 17.864624Q199.20567 17.950562 199.2838 17.997437Q199.36192 18.044312 199.51817 18.044312Q199.64317 18.044312 199.83067 18.028687ZM203.36583 17.309937L204.08458 17.403687Q203.9127 18.044312 203.45177 18.395874Q202.99083 18.747437 202.25645 18.747437Q201.3502 18.747437 200.81895 18.184937Q200.2877 17.622437 200.2877 16.606812Q200.2877 15.5599375 200.82677 14.9818125Q201.36583 14.4036875 202.2252 14.4036875Q203.05333 14.4036875 203.58458 14.974Q204.11583 15.5443125 204.11583 16.575562Q204.11583 16.638062 204.1002 16.763062L201.00645 16.763062Q201.05333 17.434937 201.39708 17.802124Q201.74083 18.169312 202.27208 18.169312Q202.64708 18.169312 202.92052 17.966187Q203.19395 17.763062 203.36583 17.309937ZM201.05333 16.184937L203.36583 16.184937Q203.31895 15.6536875 203.1002 15.3880625Q202.77208 14.9818125 202.2252 14.9818125Q201.74083 14.9818125 201.4127 15.3099375Q201.08458 15.6380625 201.05333 16.184937ZM204.95567 18.653687L204.95567 14.4974375L205.5963 14.4974375L205.5963 15.1380625Q205.83067 14.6849375 206.04161 14.5443125Q206.25255 14.4036875 206.48692 14.4036875Q206.8463 14.4036875 207.2213 14.6380625L206.9713 15.2943125Q206.7213 15.1380625 206.45567 15.1380625Q206.2213 15.1380625 206.04161 15.2786875Q205.86192 15.4193125 205.7838 15.6536875Q205.6588 16.028687 205.6588 16.481812L205.6588 18.653687L204.95567 18.653687ZM209.68614 16.809937L210.40489 16.747437Q210.45177 17.184937 210.63927 17.458374Q210.82677 17.731812 211.21739 17.903687Q211.60802 18.075562 212.09239 18.075562Q212.52989 18.075562 212.85802 17.942749Q213.18614 17.809937 213.3502 17.583374Q213.51427 17.356812 213.51427 17.091187Q213.51427 16.825562 213.35802 16.622437Q213.20177 16.419312 212.84239 16.294312Q212.60802 16.200562 211.81895 16.013062Q211.02989 15.8255625 210.71739 15.6536875Q210.31114 15.4349375 210.10802 15.114625Q209.90489 14.7943125 209.90489 14.4036875Q209.90489 13.9661875 210.15489 13.5911875Q210.40489 13.2161875 210.87364 13.020875Q211.34239 12.8255625 211.92052 12.8255625Q212.56114 12.8255625 213.04552 13.0286875Q213.52989 13.2318125 213.79552 13.63025Q214.06114 14.0286875 214.07677 14.5443125L213.34239 14.5911875Q213.29552 14.0443125 212.95177 13.770875Q212.60802 13.4974375 211.95177 13.4974375Q211.26427 13.4974375 210.95177 13.7474375Q210.63927 13.9974375 210.63927 14.3568125Q210.63927 14.6693125 210.85802 14.8568125Q211.07677 15.0599375 211.99864 15.270875Q212.92052 15.4818125 213.26427 15.6380625Q213.76427 15.8724375 214.00645 16.223999Q214.24864 16.575562 214.24864 17.028687Q214.24864 17.497437 213.98302 17.895874Q213.71739 18.294312 213.23302 18.520874Q212.74864 18.747437 212.12364 18.747437Q211.35802 18.747437 210.82677 18.520874Q210.29552 18.294312 209.99864 17.841187Q209.70177 17.388062 209.68614 16.809937ZM216.7252 18.028687L216.83458 18.638062Q216.5377 18.716187 216.30333 18.716187Q215.9127 18.716187 215.70177 18.591187Q215.49083 18.466187 215.40489 18.270874Q215.31895 18.075562 215.31895 17.434937L215.31895 15.0443125L214.80333 15.0443125L214.80333 14.4974375L215.31895 14.4974375L215.31895 13.4818125L216.02208 13.0599375L216.02208 14.4974375L216.7252 14.4974375L216.7252 15.0443125L216.02208 15.0443125L216.02208 17.481812Q216.02208 17.778687 216.06114 17.864624Q216.1002 17.950562 216.17833 17.997437Q216.25645 18.044312 216.4127 18.044312Q216.5377 18.044312 216.7252 18.028687ZM217.41661 13.7318125L217.41661 12.9193125L218.11974 12.9193125L218.11974 13.7318125L217.41661 13.7318125ZM217.41661 18.653687L217.41661 14.4974375L218.11974 14.4974375L218.11974 18.653687L217.41661 18.653687ZM221.89708 17.138062L222.58458 17.216187Q222.4752 17.934937 222.00645 18.341187Q221.5377 18.747437 220.86583 18.747437Q220.00645 18.747437 219.49083 18.192749Q218.9752 17.638062 218.9752 16.591187Q218.9752 15.9193125 219.20177 15.4193125Q219.42833 14.9193125 219.88145 14.6615Q220.33458 14.4036875 220.86583 14.4036875Q221.5377 14.4036875 221.96739 14.7474375Q222.39708 15.0911875 222.52208 15.7161875L221.83458 15.8255625Q221.74083 15.4036875 221.49083 15.19275Q221.24083 14.9818125 220.89708 14.9818125Q220.36583 14.9818125 220.02989 15.364625Q219.69395 15.7474375 219.69395 16.575562Q219.69395 17.403687 220.01427 17.786499Q220.33458 18.169312 220.8502 18.169312Q221.27208 18.169312 221.54552 17.911499Q221.81895 17.653687 221.89708 17.138062ZM223.19395 18.653687L223.19395 12.9193125L223.89708 12.9193125L223.89708 16.184937L225.56895 14.4974375L226.4752 14.4974375L224.88145 16.044312L226.63145 18.653687L225.77208 18.653687L224.39708 16.528687L223.89708 17.013062L223.89708 18.653687L223.19395 18.653687Z" fill-rule="nonzero" fill="#000000"></path><path d="M148.15224 78.41004L148.15224 78.41004C148.15224 76.38355 149.79503 74.74075 151.82152 74.74075L151.82152 74.74075C152.79468 74.74075 153.72798 75.127335 154.4161 75.81546C155.10423 76.503586 155.49081 77.43689 155.49081 78.41004L155.49081 78.41004C155.49081 80.43654 153.84802 82.07934 151.82152 82.07934L151.82152 82.07934C149.79503 82.07934 148.15224 80.43654 148.15224 78.41004Z" fill-rule="nonzero" fill="#ff0000" stroke="#666666" stroke-width="2.0" stroke-linejoin="round" stroke-linecap="butt"></path><path d="M166.96588 168.33917L166.96588 84.84312" fill-rule="nonzero" stroke="#000000" stroke-width="2.0" stroke-linejoin="round" stroke-linecap="butt"></path><path d="M175.22572 84.3733L159.63518 84.3733" fill-rule="nonzero" stroke="#000000" stroke-width="2.0" stroke-linejoin="round" stroke-linecap="butt"></path><path d="M173.38846 167.42055L161.0105 167.42055" fill-rule="nonzero" stroke="#000000" stroke-width="2.0" stroke-linejoin="round" stroke-linecap="butt"></path><path d="M177.1587 119.12359L177.1587 113.38921L177.9087 113.38921L177.9087 119.12359L177.1587 119.12359ZM179.16261 119.12359L179.16261 114.96734L179.78761 114.96734L179.78761 115.56109Q180.25636 114.87359 181.11574 114.87359Q181.49074 114.87359 181.80324 115.01421Q182.11574 115.15484 182.27199 115.37359Q182.42824 115.59234 182.49074 115.88921Q182.53761 116.07671 182.53761 116.57671L182.53761 119.12359L181.83449 119.12359L181.83449 116.59234Q181.83449 116.17046 181.74855 115.959526Q181.66261 115.74859 181.45168 115.615776Q181.24074 115.48296 180.95949 115.48296Q180.52199 115.48296 180.19386 115.772026Q179.86574 116.06109 179.86574 116.85796L179.86574 119.12359L179.16261 119.12359ZM183.61183 114.20171L183.61183 113.38921L184.31496 113.38921L184.31496 114.20171L183.61183 114.20171ZM183.61183 119.12359L183.61183 114.96734L184.31496 114.96734L184.31496 119.12359L183.61183 119.12359ZM186.92043 118.49859L187.0298 119.10796Q186.73293 119.18609 186.49855 119.18609Q186.10793 119.18609 185.89699 119.06109Q185.68605 118.93609 185.60011 118.740776Q185.51418 118.54546 185.51418 117.90484L185.51418 115.51421L184.99855 115.51421L184.99855 114.96734L185.51418 114.96734L185.51418 113.95171L186.2173 113.52984L186.2173 114.96734L186.92043 114.96734L186.92043 115.51421L186.2173 115.51421L186.2173 117.95171Q186.2173 118.24859 186.25636 118.334526Q186.29543 118.42046 186.37355 118.46734Q186.45168 118.51421 186.60793 118.51421Q186.73293 118.51421 186.92043 118.49859ZM187.61183 114.20171L187.61183 113.38921L188.31496 113.38921L188.31496 114.20171L187.61183 114.20171ZM187.61183 119.12359L187.61183 114.96734L188.31496 114.96734L188.31496 119.12359L187.61183 119.12359ZM192.0923 118.60796Q191.70168 118.93609 191.3423 119.07671Q190.98293 119.21734 190.56105 119.21734Q189.88918 119.21734 189.52199 118.8814Q189.1548 118.54546 189.1548 118.02984Q189.1548 117.71734 189.28761 117.46734Q189.42043 117.21734 189.64699 117.0689Q189.87355 116.92046 190.1548 116.84234Q190.35793 116.77984 190.7798 116.73296Q191.63918 116.62359 192.0298 116.48296Q192.04543 116.34234 192.04543 116.31109Q192.04543 115.87359 191.8423 115.70171Q191.57668 115.46734 191.04543 115.46734Q190.54543 115.46734 190.31105 115.63921Q190.07668 115.81109 189.95168 116.24859L189.26418 116.15484Q189.35793 115.71734 189.57668 115.4439Q189.79543 115.17046 190.20168 115.022026Q190.60793 114.87359 191.13918 114.87359Q191.67043 114.87359 192.00636 114.99859Q192.3423 115.12359 192.49855 115.3189Q192.6548 115.51421 192.7173 115.79546Q192.74855 115.98296 192.74855 116.45171L192.74855 117.38921Q192.74855 118.35796 192.79543 118.62359Q192.8423 118.88921 192.9673 119.12359L192.23293 119.12359Q192.12355 118.90484 192.0923 118.60796ZM192.0298 117.04546Q191.6548 117.20171 190.88918 117.31109Q190.45168 117.37359 190.27199 117.45171Q190.0923 117.52984 189.99855 117.678276Q189.9048 117.82671 189.9048 118.01421Q189.9048 118.29546 190.11574 118.48296Q190.32668 118.67046 190.73293 118.67046Q191.13918 118.67046 191.45949 118.490776Q191.7798 118.31109 191.92043 117.99859Q192.0298 117.76421 192.0298 117.29546L192.0298 117.04546ZM193.82277 119.12359L193.82277 113.38921L194.5259 113.38921L194.5259 119.12359L193.82277 119.12359Z" fill-rule="nonzero" fill="#000000"></path><path d="M174.82472 128.3267L174.82472 122.59234L175.59035 122.59234L175.59035 124.95171L178.5591 124.95171L178.5591 122.59234L179.32472 122.59234L179.32472 128.3267L178.5591 128.3267L178.5591 125.62359L175.59035 125.62359L175.59035 128.3267L174.82472 128.3267ZM183.33644 126.98296L184.05519 127.07671Q183.88332 127.71734 183.42238 128.0689Q182.96144 128.42046 182.22707 128.42046Q181.32082 128.42046 180.78957 127.85796Q180.25832 127.29546 180.25832 126.27984Q180.25832 125.23296 180.79738 124.65484Q181.33644 124.07671 182.19582 124.07671Q183.02394 124.07671 183.55519 124.647026Q184.08644 125.21734 184.08644 126.24859Q184.08644 126.31109 184.07082 126.43609L180.97707 126.43609Q181.02394 127.10796 181.36769 127.47515Q181.71144 127.84234 182.24269 127.84234Q182.61769 127.84234 182.89113 127.63921Q183.16457 127.43609 183.33644 126.98296ZM181.02394 125.85796L183.33644 125.85796Q183.28957 125.32671 183.07082 125.06109Q182.74269 124.65484 182.19582 124.65484Q181.71144 124.65484 181.38332 124.98296Q181.05519 125.31109 181.02394 125.85796ZM184.94191 123.40484L184.94191 122.59234L185.64503 122.59234L185.64503 123.40484L184.94191 123.40484ZM184.94191 128.3267L184.94191 124.17046L185.64503 124.17046L185.64503 128.3267L184.94191 128.3267ZM186.59425 128.67046L187.26613 128.77983Q187.313 129.09233 187.51613 129.23296Q187.76613 129.43608 188.21925 129.43608Q188.71925 129.43608 188.98488 129.24077Q189.2505 129.04546 189.34425 128.68608Q189.39113 128.46733 189.39113 127.77984Q188.92238 128.3267 188.23488 128.3267Q187.39113 128.3267 186.92238 127.709526Q186.45363 127.09234 186.45363 126.23296Q186.45363 125.63921 186.66457 125.1314Q186.8755 124.62359 187.28175 124.35015Q187.688 124.07671 188.2505 124.07671Q188.98488 124.07671 189.45363 124.67046L189.45363 124.17046L190.10988 124.17046L190.10988 127.76421Q190.10988 128.73296 189.90675 129.1392Q189.70363 129.54546 189.28175 129.77983Q188.85988 130.0142 188.23488 130.0142Q187.48488 130.0142 187.03175 129.67827Q186.57863 129.34233 186.59425 128.67046ZM187.17238 126.17046Q187.17238 126.99859 187.49269 127.37359Q187.813 127.74859 188.313 127.74859Q188.79738 127.74859 189.1255 127.37359Q189.45363 126.99859 189.45363 126.20171Q189.45363 125.43609 189.10988 125.053276Q188.76613 124.67046 188.29738 124.67046Q187.82863 124.67046 187.5005 125.04546Q187.17238 125.42046 187.17238 126.17046ZM191.16847 128.3267L191.16847 122.59234L191.8716 122.59234L191.8716 124.65484Q192.35597 124.07671 193.10597 124.07671Q193.57472 124.07671 193.91066 124.26421Q194.2466 124.45171 194.39503 124.772026Q194.54347 125.09234 194.54347 125.70171L194.54347 128.3267L193.84035 128.3267L193.84035 125.70171Q193.84035 125.17046 193.61378 124.928276Q193.38722 124.68609 192.96535 124.68609Q192.65285 124.68609 192.37941 124.85015Q192.10597 125.01421 191.98878 125.28765Q191.8716 125.56109 191.8716 126.06109L191.8716 128.3267L191.16847 128.3267ZM197.14894 127.70171L197.25832 128.31108Q196.96144 128.3892 196.72707 128.3892Q196.33644 128.3892 196.1255 128.2642Q195.91457 128.1392 195.82863 127.9439Q195.74269 127.74859 195.74269 127.10796L195.74269 124.71734L195.22707 124.71734L195.22707 124.17046L195.74269 124.17046L195.74269 123.15484L196.44582 122.73296L196.44582 124.17046L197.14894 124.17046L197.14894 124.71734L196.44582 124.71734L196.44582 127.15484Q196.44582 127.45171 196.48488 127.53765Q196.52394 127.62359 196.60207 127.67046Q196.68019 127.71734 196.83644 127.71734Q196.96144 127.71734 197.14894 127.70171Z" fill-rule="nonzero" fill="#000000"></path><path d="M16.013964 211.00847L214.69113 211.00847L214.69113 214.18958L16.013964 214.18958Z" fill-rule="nonzero" fill="#783f04"></path><path d="M20.080164 200.55013L59.552605 200.55013L59.552605 214.32178L20.080164 214.32178Z" fill-rule="nonzero" fill="#6aa84f"></path><path d="M59.552605 200.55013L64.14316 195.95956L64.14316 209.73122L59.552605 214.32178Z" fill-rule="nonzero" fill="#54863f"></path><path d="M20.080164 200.55013L24.670715 195.95956L64.14316 195.95956L59.552605 200.55013Z" fill-rule="nonzero" fill="#87b972"></path><path d="M20.080164 200.55013L24.670715 195.95956L64.14316 195.95956L64.14316 209.73122L59.552605 214.32178L20.080164 214.32178ZM20.080164 200.55013L59.552605 200.55013L64.14316 195.95956M59.552605 200.55013L59.552605 214.32178" fill-rule="nonzero" stroke="#000000" stroke-width="2.0" stroke-linejoin="round" stroke-linecap="butt"></path><path d="M1.122899 180.43834L1.841649 180.37584Q1.888524 180.81334 2.076024 181.08678Q2.263524 181.36021 2.654149 181.53209Q3.044774 181.70396 3.529149 181.70396Q3.966649 181.70396 4.294774 181.57115Q4.622899 181.43834 4.7869616 181.21178Q4.951024 180.98521 4.951024 180.71959Q4.951024 180.45396 4.794774 180.25084Q4.638524 180.04771 4.279149 179.92271Q4.044774 179.82896 3.2557116 179.64146Q2.466649 179.45396 2.154149 179.28209Q1.747899 179.06334 1.544774 178.74303Q1.341649 178.42271 1.341649 178.03209Q1.341649 177.59459 1.591649 177.21959Q1.841649 176.84459 2.310399 176.64928Q2.779149 176.45396 3.357274 176.45396Q3.997899 176.45396 4.482274 176.65709Q4.966649 176.86021 5.232274 177.25865Q5.497899 177.65709 5.513524 178.17271L4.779149 178.21959Q4.732274 177.67271 4.388524 177.39928Q4.044774 177.12584 3.388524 177.12584Q2.701024 177.12584 2.388524 177.37584Q2.076024 177.62584 2.076024 177.98521Q2.076024 178.29771 2.294774 178.48521Q2.513524 178.68834 3.435399 178.89928Q4.357274 179.11021 4.701024 179.26646Q5.201024 179.50084 5.4432116 179.8524Q5.685399 180.20396 5.685399 180.65709Q5.685399 181.12584 5.419774 181.52428Q5.154149 181.92271 4.669774 182.14928Q4.185399 182.37584 3.560399 182.37584Q2.794774 182.37584 2.263524 182.14928Q1.732274 181.92271 1.435399 181.46959Q1.138524 181.01646 1.122899 180.43834ZM6.3650866 180.20396Q6.3650866 179.04771 7.0057116 178.50084Q7.5369616 178.03209 8.318212 178.03209Q9.161962 178.03209 9.708837 178.59459Q10.255712 179.15709 10.255712 180.14146Q10.255712 180.95396 10.013524 181.40709Q9.771337 181.86021 9.310399 182.11803Q8.849462 182.37584 8.318212 182.37584Q7.4432116 182.37584 6.904149 181.81334Q6.3650866 181.25084 6.3650866 180.20396ZM7.0838366 180.20396Q7.0838366 181.00084 7.435399 181.39928Q7.7869616 181.79771 8.318212 181.79771Q8.833837 181.79771 9.185399 181.39928Q9.536962 181.00084 9.536962 180.18834Q9.536962 179.40709 9.185399 179.01646Q8.833837 178.62584 8.318212 178.62584Q7.7869616 178.62584 7.435399 179.01646Q7.0838366 179.40709 7.0838366 180.20396ZM13.79868 182.28209L13.79868 181.67271Q13.314305 182.37584 12.48618 182.37584Q12.11118 182.37584 11.790868 182.23521Q11.470555 182.09459 11.322118 181.88365Q11.17368 181.67271 11.11118 181.36021Q11.064305 181.15709 11.064305 180.70396L11.064305 178.12584L11.76743 178.12584L11.76743 180.43834Q11.76743 180.98521 11.814305 181.17271Q11.876805 181.45396 12.087743 181.61021Q12.29868 181.76646 12.626805 181.76646Q12.939305 181.76646 13.212743 181.6024Q13.48618 181.43834 13.603368 181.1649Q13.720555 180.89146 13.720555 180.36021L13.720555 178.12584L14.42368 178.12584L14.42368 182.28209L13.79868 182.28209ZM15.529149 182.28209L15.529149 178.12584L16.15415 178.12584L16.15415 178.71959Q16.6229 178.03209 17.482275 178.03209Q17.857275 178.03209 18.169775 178.17271Q18.482275 178.31334 18.638525 178.53209Q18.794775 178.75084 18.857275 179.04771Q18.90415 179.23521 18.90415 179.73521L18.90415 182.28209L18.201025 182.28209L18.201025 179.75084Q18.201025 179.32896 18.115088 179.11803Q18.02915 178.90709 17.818213 178.77428Q17.607275 178.64146 17.326025 178.64146Q16.888525 178.64146 16.5604 178.93053Q16.232275 179.21959 16.232275 180.01646L16.232275 182.28209L15.529149 182.28209ZM22.665869 182.28209L22.665869 181.75084Q22.275244 182.37584 21.509619 182.37584Q21.009619 182.37584 20.595556 182.1024Q20.181494 181.82896 19.954931 181.33678Q19.728369 180.84459 19.728369 180.20396Q19.728369 179.59459 19.931494 179.08678Q20.134619 178.57896 20.548681 178.30553Q20.962744 178.03209 21.478369 178.03209Q21.853369 178.03209 22.142431 178.19615Q22.431494 178.36021 22.618994 178.61021L22.618994 176.54771L23.322119 176.54771L23.322119 182.28209L22.665869 182.28209ZM20.447119 180.20396Q20.447119 181.00084 20.783056 181.39928Q21.118994 181.79771 21.572119 181.79771Q22.040869 181.79771 22.361181 181.42271Q22.681494 181.04771 22.681494 180.26646Q22.681494 179.42271 22.353369 179.02428Q22.025244 178.62584 21.540869 178.62584Q21.072119 178.62584 20.759619 179.00865Q20.447119 179.39146 20.447119 180.20396ZM26.759619 182.28209L26.759619 176.54771L30.900244 176.54771L30.900244 177.23521L27.509619 177.23521L27.509619 178.98521L30.681494 178.98521L30.681494 179.65709L27.509619 179.65709L27.509619 181.61021L31.025244 181.61021L31.025244 182.28209L26.759619 182.28209ZM34.626804 183.87584L34.626804 181.84459Q34.470554 182.06334 34.17368 182.21959Q33.876804 182.37584 33.54868 182.37584Q32.79868 182.37584 32.26743 181.78209Q31.736181 181.18834 31.736181 180.17271Q31.736181 179.54771 31.954931 179.04771Q32.17368 178.54771 32.58774 178.2899Q33.001804 178.03209 33.48618 178.03209Q34.251804 178.03209 34.70493 178.68834L34.70493 178.12584L35.32993 178.12584L35.32993 183.87584L34.626804 183.87584ZM32.45493 180.18834Q32.45493 181.00084 32.790867 181.39928Q33.126804 181.79771 33.595554 181.79771Q34.04868 181.79771 34.376804 181.4149Q34.70493 181.03209 34.70493 180.25084Q34.70493 179.42271 34.36118 179.00865Q34.01743 178.59459 33.54868 178.59459Q33.095554 178.59459 32.77524 178.98521Q32.45493 179.37584 32.45493 180.18834ZM39.15415 182.28209L39.15415 181.67271Q38.669773 182.37584 37.84165 182.37584Q37.46665 182.37584 37.146336 182.23521Q36.826023 182.09459 36.677586 181.88365Q36.52915 181.67271 36.46665 181.36021Q36.419773 181.15709 36.419773 180.70396L36.419773 178.12584L37.1229 178.12584L37.1229 180.43834Q37.1229 180.98521 37.169773 181.17271Q37.232273 181.45396 37.44321 181.61021Q37.65415 181.76646 37.982273 181.76646Q38.294773 181.76646 38.56821 181.6024Q38.84165 181.43834 38.958836 181.1649Q39.076023 180.89146 39.076023 180.36021L39.076023 178.12584L39.77915 178.12584L39.77915 182.28209L39.15415 182.28209ZM40.884617 177.36021L40.884617 176.54771L41.58774 176.54771L41.58774 177.36021L40.884617 177.36021ZM40.884617 182.28209L40.884617 178.12584L41.58774 178.12584L41.58774 182.28209L40.884617 182.28209ZM42.66196 183.87584L42.66196 178.12584L43.302586 178.12584L43.302586 178.67271Q43.521336 178.36021 43.8104 178.19615Q44.09946 178.03209 44.50571 178.03209Q45.03696 178.03209 45.44321 178.30553Q45.84946 178.57896 46.052586 179.07896Q46.25571 179.57896 46.25571 180.17271Q46.25571 180.81334 46.02915 181.32115Q45.802586 181.82896 45.365086 182.1024Q44.927586 182.37584 44.458836 182.37584Q44.09946 182.37584 43.81821 182.2274Q43.53696 182.07896 43.365086 181.84459L43.365086 183.87584L42.66196 183.87584ZM43.302586 180.23521Q43.302586 181.03209 43.6229 181.4149Q43.94321 181.79771 44.41196 181.79771Q44.88071 181.79771 45.208836 181.39928Q45.53696 181.00084 45.53696 180.17271Q45.53696 179.37584 45.21665 178.98521Q44.896336 178.59459 44.44321 178.59459Q43.990086 178.59459 43.646336 179.00865Q43.302586 179.42271 43.302586 180.23521ZM47.11118 182.28209L47.11118 178.12584L47.73618 178.12584L47.73618 178.71959Q47.939304 178.40709 48.259617 178.21959Q48.57993 178.03209 49.001804 178.03209Q49.45493 178.03209 49.751804 178.2274Q50.04868 178.42271 50.17368 178.76646Q50.658054 178.03209 51.45493 178.03209Q52.064304 178.03209 52.40024 178.37584Q52.73618 178.71959 52.73618 179.43834L52.73618 182.28209L52.033054 182.28209L52.033054 179.67271Q52.033054 179.25084 51.96274 179.06334Q51.89243 178.87584 51.71274 178.75865Q51.533054 178.64146 51.29868 178.64146Q50.86118 178.64146 50.572117 178.93834Q50.283054 179.23521 50.283054 179.87584L50.283054 182.28209L49.57993 182.28209L49.57993 179.57896Q49.57993 179.11021 49.408054 178.87584Q49.23618 178.64146 48.845554 178.64146Q48.54868 178.64146 48.290867 178.79771Q48.033054 178.95396 47.92368 179.25865Q47.814304 179.56334 47.814304 180.12584L47.814304 182.28209L47.11118 182.28209ZM56.618996 180.93834L57.337746 181.03209Q57.16587 181.67271 56.704933 182.02428Q56.243996 182.37584 55.50962 182.37584Q54.60337 182.37584 54.072117 181.81334Q53.540867 181.25084 53.540867 180.23521Q53.540867 179.18834 54.07993 178.61021Q54.618996 178.03209 55.47837 178.03209Q56.306496 178.03209 56.837746 178.6024Q57.368996 179.17271 57.368996 180.20396Q57.368996 180.26646 57.35337 180.39146L54.259617 180.39146Q54.30649 181.06334 54.650246 181.43053Q54.993996 181.79771 55.525246 181.79771Q55.900246 181.79771 56.173683 181.59459Q56.44712 181.39146 56.618996 180.93834ZM54.30649 179.81334L56.618996 179.81334Q56.57212 179.28209 56.35337 179.01646Q56.025246 178.61021 55.47837 178.61021Q54.993996 178.61021 54.66587 178.93834Q54.33774 179.26646 54.30649 179.81334ZM58.224464 182.28209L58.224464 178.12584L58.849464 178.12584L58.849464 178.71959Q59.318214 178.03209 60.17759 178.03209Q60.55259 178.03209 60.86509 178.17271Q61.17759 178.31334 61.33384 178.53209Q61.49009 178.75084 61.55259 179.04771Q61.599464 179.23521 61.599464 179.73521L61.599464 182.28209L60.89634 182.28209L60.89634 179.75084Q60.89634 179.32896 60.810402 179.11803Q60.724464 178.90709 60.513527 178.77428Q60.30259 178.64146 60.02134 178.64146Q59.58384 178.64146 59.255714 178.93053Q58.92759 179.21959 58.92759 180.01646L58.92759 182.28209L58.224464 182.28209ZM64.20493 181.65709L64.31431 182.26646Q64.01743 182.34459 63.78306 182.34459Q63.392433 182.34459 63.181496 182.21959Q62.97056 182.09459 62.88462 181.89928Q62.798683 181.70396 62.798683 181.06334L62.798683 178.67271L62.28306 178.67271L62.28306 178.12584L62.798683 178.12584L62.798683 177.11021L63.50181 176.68834L63.50181 178.12584L64.20493 178.12584L64.20493 178.67271L63.50181 178.67271L63.50181 181.11021Q63.50181 181.40709 63.54087 181.49303Q63.579933 181.57896 63.65806 181.62584Q63.736183 181.67271 63.892433 181.67271Q64.01743 181.67271 64.20493 181.65709Z" fill-rule="nonzero" fill="#000000"></path><path d="M8.208837 193.17271Q7.6307116 192.43834 7.2244616 191.45396Q6.8182116 190.46959 6.8182116 189.40709Q6.8182116 188.48521 7.1150866 187.62584Q7.4744616 186.64146 8.208837 185.65709L8.708837 185.65709Q8.240087 186.46959 8.083837 186.81334Q7.8494616 187.36021 7.7088366 187.93834Q7.5369616 188.67271 7.5369616 189.40709Q7.5369616 191.29771 8.708837 193.17271L8.208837 193.17271ZM9.529149 191.48521L9.529149 187.32896L10.154149 187.32896L10.154149 187.92271Q10.357274 187.61021 10.677587 187.42271Q10.997899 187.23521 11.419774 187.23521Q11.872899 187.23521 12.169774 187.43053Q12.466649 187.62584 12.591649 187.96959Q13.076024 187.23521 13.872899 187.23521Q14.482274 187.23521 14.818212 187.57896Q15.154149 187.92271 15.154149 188.64146L15.154149 191.48521L14.451024 191.48521L14.451024 188.87584Q14.451024 188.45396 14.380712 188.26646Q14.310399 188.07896 14.130712 187.96178Q13.951024 187.84459 13.716649 187.84459Q13.279149 187.84459 12.990087 188.14146Q12.701024 188.43834 12.701024 189.07896L12.701024 191.48521L11.997899 191.48521L11.997899 188.78209Q11.997899 188.31334 11.826024 188.07896Q11.654149 187.84459 11.263524 187.84459Q10.966649 187.84459 10.708837 188.00084Q10.451024 188.15709 10.341649 188.46178Q10.232274 188.76646 10.232274 189.32896L10.232274 191.48521L9.529149 191.48521ZM19.036963 190.14146L19.755713 190.23521Q19.583838 190.87584 19.1229 191.2274Q18.661963 191.57896 17.927588 191.57896Q17.021338 191.57896 16.490088 191.01646Q15.958837 190.45396 15.958837 189.43834Q15.958837 188.39146 16.4979 187.81334Q17.036963 187.23521 17.896338 187.23521Q18.724463 187.23521 19.255713 187.80553Q19.786963 188.37584 19.786963 189.40709Q19.786963 189.46959 19.771338 189.59459L16.677588 189.59459Q16.724463 190.26646 17.068213 190.63365Q17.411963 191.00084 17.943213 191.00084Q18.318213 191.00084 18.59165 190.79771Q18.865088 190.59459 19.036963 190.14146ZM16.724463 189.01646L19.036963 189.01646Q18.990088 188.48521 18.771338 188.21959Q18.443213 187.81334 17.896338 187.81334Q17.411963 187.81334 17.083838 188.14146Q16.755713 188.46959 16.724463 189.01646ZM23.345556 190.96959Q22.954931 191.29771 22.595556 191.43834Q22.236181 191.57896 21.814306 191.57896Q21.142431 191.57896 20.775244 191.24303Q20.408056 190.90709 20.408056 190.39146Q20.408056 190.07896 20.540869 189.82896Q20.673681 189.57896 20.900244 189.43053Q21.126806 189.28209 21.408056 189.20396Q21.611181 189.14146 22.033056 189.09459Q22.892431 188.98521 23.283056 188.84459Q23.298681 188.70396 23.298681 188.67271Q23.298681 188.23521 23.095556 188.06334Q22.829931 187.82896 22.298681 187.82896Q21.798681 187.82896 21.564306 188.00084Q21.329931 188.17271 21.204931 188.61021L20.517431 188.51646Q20.611181 188.07896 20.829931 187.80553Q21.048681 187.53209 21.454931 187.38365Q21.861181 187.23521 22.392431 187.23521Q22.923681 187.23521 23.259619 187.36021Q23.595556 187.48521 23.751806 187.68053Q23.908056 187.87584 23.970556 188.15709Q24.001806 188.34459 24.001806 188.81334L24.001806 189.75084Q24.001806 190.71959 24.048681 190.98521Q24.095556 191.25084 24.220556 191.48521L23.486181 191.48521Q23.376806 191.26646 23.345556 190.96959ZM23.283056 189.40709Q22.908056 189.56334 22.142431 189.67271Q21.704931 189.73521 21.525244 189.81334Q21.345556 189.89146 21.251806 190.0399Q21.158056 190.18834 21.158056 190.37584Q21.158056 190.65709 21.368994 190.84459Q21.579931 191.03209 21.986181 191.03209Q22.392431 191.03209 22.712744 190.8524Q23.033056 190.67271 23.173681 190.36021Q23.283056 190.12584 23.283056 189.65709L23.283056 189.40709ZM24.8104 190.25084L25.4979 190.14146Q25.5604 190.54771 25.826025 190.77428Q26.09165 191.00084 26.576025 191.00084Q27.0604 191.00084 27.294775 190.80553Q27.52915 190.61021 27.52915 190.34459Q27.52915 190.09459 27.326025 189.96959Q27.1854 189.87584 26.607275 189.71959Q25.826025 189.53209 25.52915 189.39146Q25.232275 189.25084 25.076025 188.99303Q24.919775 188.73521 24.919775 188.43834Q24.919775 188.15709 25.052588 187.92271Q25.1854 187.68834 25.40415 187.53209Q25.5604 187.40709 25.84165 187.32115Q26.1229 187.23521 26.451025 187.23521Q26.9354 187.23521 27.3104 187.37584Q27.6854 187.51646 27.857275 187.75865Q28.02915 188.00084 28.09165 188.40709L27.40415 188.50084Q27.357275 188.17271 27.138525 187.99303Q26.919775 187.81334 26.4979 187.81334Q26.013525 187.81334 25.8104 187.9774Q25.607275 188.14146 25.607275 188.36021Q25.607275 188.48521 25.6854 188.59459Q25.77915 188.71959 25.96665 188.78209Q26.0604 188.82896 26.576025 188.96959Q27.326025 189.17271 27.6229 189.29771Q27.919775 189.42271 28.083838 189.6649Q28.2479 189.90709 28.2479 190.26646Q28.2479 190.61021 28.044775 190.92271Q27.84165 191.23521 27.458838 191.40709Q27.076025 191.57896 26.576025 191.57896Q25.77915 191.57896 25.349463 191.24303Q24.919775 190.90709 24.8104 190.25084ZM31.8104 191.48521L31.8104 190.87584Q31.326025 191.57896 30.4979 191.57896Q30.1229 191.57896 29.802588 191.43834Q29.482275 191.29771 29.333838 191.08678Q29.1854 190.87584 29.1229 190.56334Q29.076025 190.36021 29.076025 189.90709L29.076025 187.32896L29.77915 187.32896L29.77915 189.64146Q29.77915 190.18834 29.826025 190.37584Q29.888525 190.65709 30.099463 190.81334Q30.3104 190.96959 30.638525 190.96959Q30.951025 190.96959 31.224463 190.80553Q31.4979 190.64146 31.615088 190.36803Q31.732275 190.09459 31.732275 189.56334L31.732275 187.32896L32.4354 187.32896L32.4354 191.48521L31.8104 191.48521ZM33.52524 191.48521L33.52524 187.32896L34.165867 187.32896L34.165867 187.96959Q34.40024 187.51646 34.61118 187.37584Q34.822117 187.23521 35.05649 187.23521Q35.415867 187.23521 35.790867 187.46959L35.540867 188.12584Q35.290867 187.96959 35.02524 187.96959Q34.790867 187.96959 34.61118 188.11021Q34.43149 188.25084 34.353367 188.48521Q34.228367 188.86021 34.228367 189.31334L34.228367 191.48521L33.52524 191.48521ZM39.04868 190.14146L39.76743 190.23521Q39.595554 190.87584 39.134617 191.2274Q38.67368 191.57896 37.939304 191.57896Q37.033054 191.57896 36.501804 191.01646Q35.970554 190.45396 35.970554 189.43834Q35.970554 188.39146 36.509617 187.81334Q37.04868 187.23521 37.908054 187.23521Q38.73618 187.23521 39.26743 187.80553Q39.79868 188.37584 39.79868 189.40709Q39.79868 189.46959 39.783054 189.59459L36.689304 189.59459Q36.73618 190.26646 37.07993 190.63365Q37.42368 191.00084 37.95493 191.00084Q38.32993 191.00084 38.603367 190.79771Q38.876804 190.59459 39.04868 190.14146ZM36.73618 189.01646L39.04868 189.01646Q39.001804 188.48521 38.783054 188.21959Q38.45493 187.81334 37.908054 187.81334Q37.42368 187.81334 37.095554 188.14146Q36.76743 188.46959 36.73618 189.01646ZM40.3729 190.25084L41.0604 190.14146Q41.1229 190.54771 41.388523 190.77428Q41.65415 191.00084 42.138523 191.00084Q42.6229 191.00084 42.857273 190.80553Q43.09165 190.61021 43.09165 190.34459Q43.09165 190.09459 42.888523 189.96959Q42.7479 189.87584 42.169773 189.71959Q41.388523 189.53209 41.09165 189.39146Q40.794773 189.25084 40.638523 188.99303Q40.482273 188.73521 40.482273 188.43834Q40.482273 188.15709 40.615086 187.92271Q40.7479 187.68834 40.96665 187.53209Q41.1229 187.40709 41.40415 187.32115Q41.6854 187.23521 42.013523 187.23521Q42.4979 187.23521 42.8729 187.37584Q43.2479 187.51646 43.419773 187.75865Q43.59165 188.00084 43.65415 188.40709L42.96665 188.50084Q42.919773 188.17271 42.701023 187.99303Q42.482273 187.81334 42.0604 187.81334Q41.576023 187.81334 41.3729 187.9774Q41.169773 188.14146 41.169773 188.36021Q41.169773 188.48521 41.2479 188.59459Q41.34165 188.71959 41.52915 188.78209Q41.6229 188.82896 42.138523 188.96959Q42.888523 189.17271 43.1854 189.29771Q43.482273 189.42271 43.646336 189.6649Q43.8104 189.90709 43.8104 190.26646Q43.8104 190.61021 43.607273 190.92271Q43.40415 191.23521 43.021336 191.40709Q42.638523 191.57896 42.138523 191.57896Q41.34165 191.57896 40.91196 191.24303Q40.482273 190.90709 40.3729 190.25084ZM49.564304 191.48521L49.564304 190.95396Q49.17368 191.57896 48.408054 191.57896Q47.908054 191.57896 47.49399 191.30553Q47.07993 191.03209 46.853367 190.5399Q46.626804 190.04771 46.626804 189.40709Q46.626804 188.79771 46.82993 188.2899Q47.033054 187.78209 47.447117 187.50865Q47.86118 187.23521 48.376804 187.23521Q48.751804 187.23521 49.040867 187.39928Q49.32993 187.56334 49.51743 187.81334L49.51743 185.75084L50.220554 185.75084L50.220554 191.48521L49.564304 191.48521ZM47.345554 189.40709Q47.345554 190.20396 47.68149 190.6024Q48.01743 191.00084 48.470554 191.00084Q48.939304 191.00084 49.259617 190.62584Q49.57993 190.25084 49.57993 189.46959Q49.57993 188.62584 49.251804 188.2274Q48.92368 187.82896 48.439304 187.82896Q47.970554 187.82896 47.658054 188.21178Q47.345554 188.59459 47.345554 189.40709ZM51.388523 191.48521L51.388523 185.75084L53.52915 185.75084Q54.1854 185.75084 54.58384 185.93053Q54.982277 186.11021 55.20884 186.46959Q55.435402 186.82896 55.435402 187.21959Q55.435402 187.59459 55.232277 187.9149Q55.029152 188.23521 54.622902 188.43834Q55.154152 188.59459 55.42759 188.96178Q55.701027 189.32896 55.701027 189.82896Q55.701027 190.21959 55.536964 190.57115Q55.372902 190.92271 55.122902 191.11021Q54.872902 191.29771 54.49009 191.39146Q54.107273 191.48521 53.5604 191.48521L51.388523 191.48521ZM52.138523 188.15709L53.3729 188.15709Q53.888523 188.15709 54.107273 188.09459Q54.388523 188.01646 54.536964 187.81334Q54.685402 187.61021 54.685402 187.31334Q54.685402 187.03209 54.544777 186.81334Q54.404152 186.59459 54.15415 186.51646Q53.90415 186.43834 53.27915 186.43834L52.138523 186.43834L52.138523 188.15709ZM52.138523 190.81334L53.5604 190.81334Q53.9354 190.81334 54.076023 190.78209Q54.34165 190.73521 54.52134 190.62584Q54.701027 190.51646 54.810402 190.30553Q54.919777 190.09459 54.919777 189.82896Q54.919777 189.50084 54.755714 189.26646Q54.591652 189.03209 54.302586 188.93834Q54.013523 188.84459 53.46665 188.84459L52.138523 188.84459L52.138523 190.81334ZM57.11509 193.17271L56.61509 193.17271Q57.786964 191.29771 57.786964 189.40709Q57.786964 188.67271 57.61509 187.95396Q57.49009 187.37584 57.24009 186.82896Q57.099464 186.48521 56.61509 185.65709L57.11509 185.65709Q57.849464 186.64146 58.20884 187.62584Q58.505714 188.48521 58.505714 189.40709Q58.505714 190.46959 58.099464 191.45396Q57.693214 192.43834 57.11509 193.17271Z" fill-rule="nonzero" fill="#000000"></path><path d="M66.50131 191.99225L111.666664 191.99225" fill-rule="nonzero" stroke="#000000" stroke-width="2.0" stroke-linejoin="round" stroke-linecap="butt"></path><path d="M111.926315 197.09448L111.926315 187.45668" fill-rule="nonzero" stroke="#000000" stroke-width="2.0" stroke-linejoin="round" stroke-linecap="butt"></path><path d="M66.99829 195.95956L66.99829 188.30603" fill-rule="nonzero" stroke="#000000" stroke-width="2.0" stroke-linejoin="round" stroke-linecap="butt"></path><path d="M81.459595 186.45845L81.459595 185.08345L78.97522 185.08345L78.97522 184.44283L81.584595 180.72408L82.16272 180.72408L82.16272 184.44283L82.928345 184.44283L82.928345 185.08345L82.16272 185.08345L82.16272 186.45845L81.459595 186.45845ZM81.459595 184.44283L81.459595 181.8647L79.66272 184.44283L81.459595 184.44283ZM83.64319 183.63033Q83.64319 182.6147 83.854126 181.99751Q84.06506 181.38033 84.479126 181.04439Q84.89319 180.70845 85.51819 180.70845Q85.97131 180.70845 86.322876 180.89595Q86.67444 181.08345 86.901 181.4272Q87.12756 181.77095 87.25256 182.27876Q87.37756 182.78658 87.37756 183.63033Q87.37756 184.64595 87.17444 185.26314Q86.97131 185.88033 86.55725 186.21626Q86.14319 186.5522 85.51819 186.5522Q84.69006 186.5522 84.22131 185.95845Q83.64319 185.2397 83.64319 183.63033ZM84.37756 183.63033Q84.37756 185.03658 84.70569 185.50533Q85.03381 185.97408 85.51819 185.97408Q86.00256 185.97408 86.33069 185.50533Q86.65881 185.03658 86.65881 183.63033Q86.65881 182.22408 86.33069 181.75533Q86.00256 181.28658 85.50256 181.28658Q85.01819 181.28658 84.73694 181.69283Q84.37756 182.22408 84.37756 183.63033ZM90.99866 184.94283L91.68616 185.02095Q91.57678 185.7397 91.10803 186.14595Q90.63928 186.5522 89.96741 186.5522Q89.10803 186.5522 88.59241 185.99751Q88.07678 185.44283 88.07678 184.39595Q88.07678 183.72408 88.303345 183.22408Q88.52991 182.72408 88.98303 182.46626Q89.43616 182.20845 89.96741 182.20845Q90.63928 182.20845 91.06897 182.5522Q91.49866 182.89595 91.62366 183.52095L90.93616 183.63033Q90.84241 183.20845 90.59241 182.99751Q90.34241 182.78658 89.99866 182.78658Q89.46741 182.78658 89.13147 183.16939Q88.79553 183.5522 88.79553 184.38033Q88.79553 185.20845 89.115845 185.59126Q89.43616 185.97408 89.95178 185.97408Q90.37366 185.97408 90.647095 185.71626Q90.92053 185.45845 90.99866 184.94283ZM92.29553 186.45845L92.29553 182.3022L92.92053 182.3022L92.92053 182.89595Q93.12366 182.58345 93.44397 182.39595Q93.76428 182.20845 94.18616 182.20845Q94.63928 182.20845 94.93616 182.40376Q95.23303 182.59908 95.35803 182.94283Q95.84241 182.20845 96.63928 182.20845Q97.24866 182.20845 97.584595 182.5522Q97.92053 182.89595 97.92053 183.6147L97.92053 186.45845L97.21741 186.45845L97.21741 183.84908Q97.21741 183.4272 97.147095 183.2397Q97.07678 183.0522 96.897095 182.93501Q96.71741 182.81783 96.48303 182.81783Q96.04553 182.81783 95.75647 183.1147Q95.46741 183.41158 95.46741 184.0522L95.46741 186.45845L94.76428 186.45845L94.76428 183.75533Q94.76428 183.28658 94.59241 183.0522Q94.42053 182.81783 94.02991 182.81783Q93.73303 182.81783 93.47522 182.97408Q93.21741 183.13033 93.10803 183.43501Q92.99866 183.7397 92.99866 184.3022L92.99866 186.45845L92.29553 186.45845Z" fill-rule="nonzero" fill="#000000"></path></svg>

