<?xml version="1.0" standalone="yes"?>

<svg version="1.1" viewBox="0.0 0.0 137.0 215.0" fill="none" stroke="none" stroke-linecap="square" stroke-miterlimit="10" clip-path="url(#p.0)" xmlns="http://www.w3.org/2000/svg" xmlns:xlink="http://www.w3.org/1999/xlink"><clipPath id="p.0"><path d="M0 0L137.0 0L137.0 215.0L0 215.0L0 0Z" clip-rule="nonzero"></path></clipPath><path d="M16.82667 164.6663L18.275488 164.6663L18.275488 209.64268L16.82667 209.64268Z" fill-rule="nonzero" fill="#000000"></path><path d="M93.44357 208.61482L93.44357 210.09514L16.813648 210.09514L16.813648 208.61482Z" fill-rule="nonzero" fill="#000000"></path><path d="M92.00906 164.6663L93.457886 164.6663L93.457886 209.64268L92.00906 209.64268Z" fill-rule="nonzero" fill="#000000"></path><path d="M18.265862 167.55118L91.998146 167.55118L91.998146 208.27557L18.265862 208.27557Z" fill-rule="nonzero" fill="#cfe2f3"></path><path d="M51.695538 4.538058L59.947506 4.538058L59.947506 167.4357L51.695538 167.4357Z" fill-rule="nonzero" stroke="#000000" stroke-width="2.0" stroke-linejoin="round" stroke-linecap="butt"></path><path d="M87.41326 17.4414L67.14079 25.192638L66.72347 24.082403L65.3424 27.15006L68.39276 28.523348L67.97544 27.41311L88.24791 19.661873Z" fill-rule="nonzero" fill="#000000"></path><path d="M91.248634 18.653687L91.248634 12.9193125L92.38926 12.9193125L93.748634 16.981812Q93.936134 17.544312 94.01426 17.825562Q94.123634 17.513062 94.32676 16.903687L95.70176 12.9193125L96.717384 12.9193125L96.717384 18.653687L95.98301 18.653687L95.98301 13.8568125L94.32676 18.653687L93.63926 18.653687L91.98301 13.7786875L91.98301 18.653687L91.248634 18.653687ZM100.69395 17.309937L101.4127 17.403687Q101.24082 18.044312 100.779884 18.395874Q100.31895 18.747437 99.58457 18.747437Q98.67832 18.747437 98.14707 18.184937Q97.61582 17.622437 97.61582 16.606812Q97.61582 15.5599375 98.154884 14.9818125Q98.69395 14.4036875 99.55332 14.4036875Q100.38145 14.4036875 100.9127 14.974Q101.44395 15.5443125 101.44395 16.575562Q101.44395 16.638062 101.42832 16.763062L98.33457 16.763062Q98.38145 17.434937 98.7252 17.802124Q99.06895 18.169312 99.6002 18.169312Q99.9752 18.169312 100.248634 17.966187Q100.52207 17.763062 100.69395 17.309937ZM98.38145 16.184937L100.69395 16.184937Q100.64707 15.6536875 100.42832 15.3880625Q100.1002 14.9818125 99.55332 14.9818125Q99.06895 14.9818125 98.74082 15.3099375Q98.4127 15.6380625 98.38145 16.184937ZM103.830666 18.028687L103.94004 18.638062Q103.643166 18.716187 103.40879 18.716187Q103.018166 18.716187 102.80723 18.591187Q102.59629 18.466187 102.51035 18.270874Q102.424416 18.075562 102.424416 17.434937L102.424416 15.0443125L101.90879 15.0443125L101.90879 14.4974375L102.424416 14.4974375L102.424416 13.4818125L103.12754 13.0599375L103.12754 14.4974375L103.830666 14.4974375L103.830666 15.0443125L103.12754 15.0443125L103.12754 17.481812Q103.12754 17.778687 103.1666 17.864624Q103.205666 17.950562 103.28379 17.997437Q103.361916 18.044312 103.518166 18.044312Q103.643166 18.044312 103.830666 18.028687ZM107.36582 17.309937L108.08457 17.403687Q107.9127 18.044312 107.45176 18.395874Q106.99082 18.747437 106.25645 18.747437Q105.3502 18.747437 104.81895 18.184937Q104.2877 17.622437 104.2877 16.606812Q104.2877 15.5599375 104.82676 14.9818125Q105.36582 14.4036875 106.2252 14.4036875Q107.05332 14.4036875 107.58457 14.974Q108.11582 15.5443125 108.11582 16.575562Q108.11582 16.638062 108.1002 16.763062L105.00645 16.763062Q105.05332 17.434937 105.39707 17.802124Q105.74082 18.169312 106.27207 18.169312Q106.64707 18.169312 106.92051 17.966187Q107.19395 17.763062 107.36582 17.309937ZM105.05332 16.184937L107.36582 16.184937Q107.31895 15.6536875 107.1002 15.3880625Q106.77207 14.9818125 106.2252 14.9818125Q105.74082 14.9818125 105.4127 15.3099375Q105.08457 15.6380625 105.05332 16.184937ZM108.955666 18.653687L108.955666 14.4974375L109.59629 14.4974375L109.59629 15.1380625Q109.830666 14.6849375 110.0416 14.5443125Q110.25254 14.4036875 110.486916 14.4036875Q110.84629 14.4036875 111.22129 14.6380625L110.97129 15.2943125Q110.72129 15.1380625 110.455666 15.1380625Q110.22129 15.1380625 110.0416 15.2786875Q109.861916 15.4193125 109.78379 15.6536875Q109.65879 16.028687 109.65879 16.481812L109.65879 18.653687L108.955666 18.653687ZM113.686134 16.809937L114.404884 16.747437Q114.45176 17.184937 114.63926 17.458374Q114.82676 17.731812 115.217384 17.903687Q115.60801 18.075562 116.092384 18.075562Q116.529884 18.075562 116.85801 17.942749Q117.186134 17.809937 117.3502 17.583374Q117.51426 17.356812 117.51426 17.091187Q117.51426 16.825562 117.35801 16.622437Q117.20176 16.419312 116.842384 16.294312Q116.60801 16.200562 115.81895 16.013062Q115.029884 15.8255625 114.717384 15.6536875Q114.311134 15.4349375 114.10801 15.114625Q113.904884 14.7943125 113.904884 14.4036875Q113.904884 13.9661875 114.154884 13.5911875Q114.404884 13.2161875 114.873634 13.020875Q115.342384 12.8255625 115.92051 12.8255625Q116.561134 12.8255625 117.04551 13.0286875Q117.529884 13.2318125 117.79551 13.63025Q118.061134 14.0286875 118.07676 14.5443125L117.342384 14.5911875Q117.29551 14.0443125 116.95176 13.770875Q116.60801 13.4974375 115.95176 13.4974375Q115.26426 13.4974375 114.95176 13.7474375Q114.63926 13.9974375 114.63926 14.3568125Q114.63926 14.6693125 114.85801 14.8568125Q115.07676 15.0599375 115.998634 15.270875Q116.92051 15.4818125 117.26426 15.6380625Q117.76426 15.8724375 118.00645 16.223999Q118.248634 16.575562 118.248634 17.028687Q118.248634 17.497437 117.98301 17.895874Q117.717384 18.294312 117.23301 18.520874Q116.748634 18.747437 116.123634 18.747437Q115.35801 18.747437 114.82676 18.520874Q114.29551 18.294312 113.998634 17.841187Q113.70176 17.388062 113.686134 16.809937ZM120.7252 18.028687L120.83457 18.638062Q120.5377 18.716187 120.30332 18.716187Q119.9127 18.716187 119.70176 18.591187Q119.49082 18.466187 119.404884 18.270874Q119.31895 18.075562 119.31895 17.434937L119.31895 15.0443125L118.80332 15.0443125L118.80332 14.4974375L119.31895 14.4974375L119.31895 13.4818125L120.02207 13.0599375L120.02207 14.4974375L120.7252 14.4974375L120.7252 15.0443125L120.02207 15.0443125L120.02207 17.481812Q120.02207 17.778687 120.061134 17.864624Q120.1002 17.950562 120.17832 17.997437Q120.25645 18.044312 120.4127 18.044312Q120.5377 18.044312 120.7252 18.028687ZM121.4166 13.7318125L121.4166 12.9193125L122.11973 12.9193125L122.11973 13.7318125L121.4166 13.7318125ZM121.4166 18.653687L121.4166 14.4974375L122.11973 14.4974375L122.11973 18.653687L121.4166 18.653687ZM125.89707 17.138062L126.58457 17.216187Q126.4752 17.934937 126.00645 18.341187Q125.5377 18.747437 124.86582 18.747437Q124.00645 18.747437 123.49082 18.192749Q122.9752 17.638062 122.9752 16.591187Q122.9752 15.9193125 123.20176 15.4193125Q123.42832 14.9193125 123.88145 14.6615Q124.33457 14.4036875 124.86582 14.4036875Q125.5377 14.4036875 125.967384 14.7474375Q126.39707 15.0911875 126.52207 15.7161875L125.83457 15.8255625Q125.74082 15.4036875 125.49082 15.19275Q125.24082 14.9818125 124.89707 14.9818125Q124.36582 14.9818125 124.029884 15.364625Q123.69395 15.7474375 123.69395 16.575562Q123.69395 17.403687 124.01426 17.786499Q124.33457 18.169312 124.8502 18.169312Q125.27207 18.169312 125.54551 17.911499Q125.81895 17.653687 125.89707 17.138062ZM127.19395 18.653687L127.19395 12.9193125L127.89707 12.9193125L127.89707 16.184937L129.56895 14.4974375L130.4752 14.4974375L128.88145 16.044312L130.63145 18.653687L129.77208 18.653687L128.39708 16.528687L127.89707 17.013062L127.89707 18.653687L127.19395 18.653687Z" fill-rule="nonzero" fill="#000000"></path><path d="M52.15223 78.41004L52.15223 78.41004C52.15223 76.38355 53.79503 74.74075 55.82152 74.74075L55.82152 74.74075C56.794678 74.74075 57.727978 75.127335 58.416103 75.81546C59.10423 76.503586 59.490814 77.43689 59.490814 78.41004L59.490814 78.41004C59.490814 80.43654 57.848015 82.07934 55.82152 82.07934L55.82152 82.07934C53.79503 82.07934 52.15223 80.43654 52.15223 78.41004Z" fill-rule="nonzero" fill="#ff0000" stroke="#666666" stroke-width="2.0" stroke-linejoin="round" stroke-linecap="butt"></path><path d="M70.96588 168.33917L70.96588 84.84312" fill-rule="nonzero" stroke="#000000" stroke-width="2.0" stroke-linejoin="round" stroke-linecap="butt"></path><path d="M79.22572 84.3733L63.63517 84.3733" fill-rule="nonzero" stroke="#000000" stroke-width="2.0" stroke-linejoin="round" stroke-linecap="butt"></path><path d="M77.38845 167.42055L65.0105 167.42055" fill-rule="nonzero" stroke="#000000" stroke-width="2.0" stroke-linejoin="round" stroke-linecap="butt"></path><path d="M81.158714 119.12359L81.158714 113.38921L81.908714 113.38921L81.908714 119.12359L81.158714 119.12359ZM83.16262 119.12359L83.16262 114.96734L83.78762 114.96734L83.78762 115.56109Q84.25637 114.87359 85.115746 114.87359Q85.490746 114.87359 85.803246 115.01421Q86.115746 115.15484 86.271996 115.37359Q86.428246 115.59234 86.490746 115.88921Q86.53762 116.07671 86.53762 116.57671L86.53762 119.12359L85.834496 119.12359L85.834496 116.59234Q85.834496 116.17046 85.74856 115.959526Q85.66262 115.74859 85.45168 115.615776Q85.240746 115.48296 84.959496 115.48296Q84.521996 115.48296 84.19387 115.772026Q83.865746 116.06109 83.865746 116.85796L83.865746 119.12359L83.16262 119.12359ZM87.61184 114.20171L87.61184 113.38921L88.314964 113.38921L88.314964 114.20171L87.61184 114.20171ZM87.61184 119.12359L87.61184 114.96734L88.314964 114.96734L88.314964 119.12359L87.61184 119.12359ZM90.92043 118.49859L91.02981 119.10796Q90.73293 119.18609 90.49856 119.18609Q90.10793 119.18609 89.896996 119.06109Q89.68606 118.93609 89.60012 118.740776Q89.51418 118.54546 89.51418 117.90484L89.51418 115.51421L88.99856 115.51421L88.99856 114.96734L89.51418 114.96734L89.51418 113.95171L90.21731 113.52984L90.21731 114.96734L90.92043 114.96734L90.92043 115.51421L90.21731 115.51421L90.21731 117.95171Q90.21731 118.24859 90.25637 118.334526Q90.29543 118.42046 90.37356 118.46734Q90.45168 118.51421 90.60793 118.51421Q90.73293 118.51421 90.92043 118.49859ZM91.61184 114.20171L91.61184 113.38921L92.314964 113.38921L92.314964 114.20171L91.61184 114.20171ZM91.61184 119.12359L91.61184 114.96734L92.314964 114.96734L92.314964 119.12359L91.61184 119.12359ZM96.09231 118.60796Q95.70168 118.93609 95.34231 119.07671Q94.98293 119.21734 94.56106 119.21734Q93.88918 119.21734 93.521996 118.8814Q93.15481 118.54546 93.15481 118.02984Q93.15481 117.71734 93.28762 117.46734Q93.42043 117.21734 93.646996 117.0689Q93.87356 116.92046 94.15481 116.84234Q94.35793 116.77984 94.77981 116.73296Q95.63918 116.62359 96.02981 116.48296Q96.04543 116.34234 96.04543 116.31109Q96.04543 115.87359 95.84231 115.70171Q95.57668 115.46734 95.04543 115.46734Q94.54543 115.46734 94.31106 115.63921Q94.07668 115.81109 93.95168 116.24859L93.26418 116.15484Q93.35793 115.71734 93.57668 115.4439Q93.79543 115.17046 94.20168 115.022026Q94.60793 114.87359 95.13918 114.87359Q95.67043 114.87359 96.00637 114.99859Q96.34231 115.12359 96.49856 115.3189Q96.65481 115.51421 96.71731 115.79546Q96.74856 115.98296 96.74856 116.45171L96.74856 117.38921Q96.74856 118.35796 96.79543 118.62359Q96.84231 118.88921 96.96731 119.12359L96.23293 119.12359Q96.12356 118.90484 96.09231 118.60796ZM96.02981 117.04546Q95.65481 117.20171 94.88918 117.31109Q94.45168 117.37359 94.271996 117.45171Q94.09231 117.52984 93.99856 117.678276Q93.90481 117.82671 93.90481 118.01421Q93.90481 118.29546 94.115746 118.48296Q94.32668 118.67046 94.73293 118.67046Q95.13918 118.67046 95.459496 118.490776Q95.77981 118.31109 95.92043 117.99859Q96.02981 117.76421 96.02981 117.29546L96.02981 117.04546ZM97.82278 119.12359L97.82278 113.38921L98.5259 113.38921L98.5259 119.12359L97.82278 119.12359Z" fill-rule="nonzero" fill="#000000"></path><path d="M78.82473 128.3267L78.82473 122.59234L79.590355 122.59234L79.590355 124.95171L82.559105 124.95171L82.559105 122.59234L83.32473 122.59234L83.32473 128.3267L82.559105 128.3267L82.559105 125.62359L79.590355 125.62359L79.590355 128.3267L78.82473 128.3267ZM87.33645 126.98296L88.0552 127.07671Q87.88332 127.71734 87.422386 128.0689Q86.96145 128.42046 86.22707 128.42046Q85.32082 128.42046 84.78957 127.85796Q84.25832 127.29546 84.25832 126.27984Q84.25832 125.23296 84.797386 124.65484Q85.33645 124.07671 86.19582 124.07671Q87.02395 124.07671 87.5552 124.647026Q88.08645 125.21734 88.08645 126.24859Q88.08645 126.31109 88.07082 126.43609L84.97707 126.43609Q85.02395 127.10796 85.3677 127.47515Q85.71145 127.84234 86.2427 127.84234Q86.6177 127.84234 86.891136 127.63921Q87.16457 127.43609 87.33645 126.98296ZM85.02395 125.85796L87.33645 125.85796Q87.28957 125.32671 87.07082 125.06109Q86.7427 124.65484 86.19582 124.65484Q85.71145 124.65484 85.38332 124.98296Q85.0552 125.31109 85.02395 125.85796ZM88.94192 123.40484L88.94192 122.59234L89.64504 122.59234L89.64504 123.40484L88.94192 123.40484ZM88.94192 128.3267L88.94192 124.17046L89.64504 124.17046L89.64504 128.3267L88.94192 128.3267ZM90.59426 128.67046L91.266136 128.77983Q91.31301 129.09233 91.516136 129.23296Q91.766136 129.43608 92.21926 129.43608Q92.71926 129.43608 92.984886 129.24077Q93.25051 129.04546 93.34426 128.68608Q93.391136 128.46733 93.391136 127.77984Q92.922386 128.3267 92.234886 128.3267Q91.391136 128.3267 90.922386 127.709526Q90.453636 127.09234 90.453636 126.23296Q90.453636 125.63921 90.66457 125.1314Q90.87551 124.62359 91.28176 124.35015Q91.68801 124.07671 92.25051 124.07671Q92.984886 124.07671 93.453636 124.67046L93.453636 124.17046L94.109886 124.17046L94.109886 127.76421Q94.109886 128.73296 93.90676 129.1392Q93.703636 129.54546 93.28176 129.77983Q92.859886 130.0142 92.234886 130.0142Q91.484886 130.0142 91.03176 129.67827Q90.578636 129.34233 90.59426 128.67046ZM91.172386 126.17046Q91.172386 126.99859 91.4927 127.37359Q91.81301 127.74859 92.31301 127.74859Q92.797386 127.74859 93.12551 127.37359Q93.453636 126.99859 93.453636 126.20171Q93.453636 125.43609 93.109886 125.053276Q92.766136 124.67046 92.297386 124.67046Q91.828636 124.67046 91.50051 125.04546Q91.172386 125.42046 91.172386 126.17046ZM95.16848 128.3267L95.16848 122.59234L95.871605 122.59234L95.871605 124.65484Q96.35598 124.07671 97.10598 124.07671Q97.57473 124.07671 97.91067 124.26421Q98.246605 124.45171 98.39504 124.772026Q98.54348 125.09234 98.54348 125.70171L98.54348 128.3267L97.840355 128.3267L97.840355 125.70171Q97.840355 125.17046 97.61379 124.928276Q97.38723 124.68609 96.965355 124.68609Q96.652855 124.68609 96.37942 124.85015Q96.10598 125.01421 95.98879 125.28765Q95.871605 125.56109 95.871605 126.06109L95.871605 128.3267L95.16848 128.3267ZM101.14895 127.70171L101.25832 128.31108Q100.96145 128.3892 100.72707 128.3892Q100.33645 128.3892 100.12551 128.2642Q99.91457 128.1392 99.828636 127.9439Q99.7427 127.74859 99.7427 127.10796L99.7427 124.71734L99.22707 124.71734L99.22707 124.17046L99.7427 124.17046L99.7427 123.15484L100.44582 122.73296L100.44582 124.17046L101.14895 124.17046L101.14895 124.71734L100.44582 124.71734L100.44582 127.15484Q100.44582 127.45171 100.484886 127.53765Q100.52395 127.62359 100.60207 127.67046Q100.6802 127.71734 100.83645 127.71734Q100.96145 127.71734 101.14895 127.70171Z" fill-rule="nonzero" fill="#000000"></path><path d="M2.749985 211.00847L110.687 211.00847L110.687 214.18958L2.749985 214.18958Z" fill-rule="nonzero" fill="#783f04"></path><path d="M15.210358 74.44129L15.975983 74.64442Q15.725983 75.56629 15.108795 76.05848Q14.491608 76.55067 13.600983 76.55067Q12.679108 76.55067 12.09317 76.17567Q11.507233 75.80067 11.210358 75.08192Q10.913483 74.36317 10.913483 73.55067Q10.913483 72.66004 11.24942 71.98817Q11.585358 71.31629 12.21817 70.97254Q12.850983 70.62879 13.616608 70.62879Q14.475983 70.62879 15.06192 71.06629Q15.647858 71.50379 15.866608 72.30067L15.132233 72.47254Q14.929108 71.84754 14.546295 71.56629Q14.163483 71.28504 13.600983 71.28504Q12.929108 71.28504 12.491608 71.59754Q12.054108 71.91004 11.87442 72.44129Q11.694733 72.97254 11.694733 73.55067Q11.694733 74.26942 11.90567 74.81629Q12.116608 75.36317 12.56192 75.636604Q13.007233 75.91004 13.538483 75.91004Q14.179108 75.91004 14.616608 75.542854Q15.054108 75.17567 15.210358 74.44129ZM16.815826 76.45692L16.815826 70.72254L17.518951 70.72254L17.518951 72.78504Q18.003326 72.20692 18.753326 72.20692Q19.222076 72.20692 19.558014 72.39442Q19.893951 72.58192 20.042389 72.90223Q20.190826 73.22254 20.190826 73.83192L20.190826 76.45692L19.487701 76.45692L19.487701 73.83192Q19.487701 73.30067 19.261139 73.05848Q19.034576 72.81629 18.612701 72.81629Q18.300201 72.81629 18.026764 72.980354Q17.753326 73.14442 17.636139 73.417854Q17.518951 73.69129 17.518951 74.19129L17.518951 76.45692L16.815826 76.45692ZM21.24942 76.45692L21.24942 72.30067L21.890045 72.30067L21.890045 72.94129Q22.12442 72.48817 22.335358 72.34754Q22.546295 72.20692 22.78067 72.20692Q23.140045 72.20692 23.515045 72.44129L23.265045 73.09754Q23.015045 72.94129 22.74942 72.94129Q22.515045 72.94129 22.335358 73.08192Q22.15567 73.22254 22.077545 73.45692Q21.952545 73.83192 21.952545 74.28504L21.952545 76.45692L21.24942 76.45692ZM23.929108 71.53504L23.929108 70.72254L24.632233 70.72254L24.632233 71.53504L23.929108 71.53504ZM23.929108 76.45692L23.929108 72.30067L24.632233 72.30067L24.632233 76.45692L23.929108 76.45692ZM25.425201 75.22254L26.112701 75.11317Q26.175201 75.51942 26.440826 75.74598Q26.706451 75.97254 27.190826 75.97254Q27.675201 75.97254 27.909576 75.77723Q28.143951 75.58192 28.143951 75.31629Q28.143951 75.06629 27.940826 74.94129Q27.800201 74.84754 27.222076 74.69129Q26.440826 74.50379 26.143951 74.36317Q25.847076 74.22254 25.690826 73.96473Q25.534576 73.70692 25.534576 73.41004Q25.534576 73.12879 25.667389 72.89442Q25.800201 72.66004 26.018951 72.50379Q26.175201 72.37879 26.456451 72.292854Q26.737701 72.20692 27.065826 72.20692Q27.550201 72.20692 27.925201 72.34754Q28.300201 72.48817 28.472076 72.730354Q28.643951 72.97254 28.706451 73.37879L28.018951 73.47254Q27.972076 73.14442 27.753326 72.96473Q27.534576 72.78504 27.112701 72.78504Q26.628326 72.78504 26.425201 72.949104Q26.222076 73.11317 26.222076 73.33192Q26.222076 73.45692 26.300201 73.56629Q26.393951 73.69129 26.581451 73.75379Q26.675201 73.80067 27.190826 73.94129Q27.940826 74.14442 28.237701 74.26942Q28.534576 74.39442 28.698639 74.636604Q28.862701 74.87879 28.862701 75.23817Q28.862701 75.58192 28.659576 75.89442Q28.456451 76.20692 28.073639 76.37879Q27.690826 76.55067 27.190826 76.55067Q26.393951 76.55067 25.964264 76.21473Q25.534576 75.87879 25.425201 75.22254ZM31.237701 75.83192L31.347076 76.44129Q31.050201 76.51942 30.815826 76.51942Q30.425201 76.51942 30.214264 76.39442Q30.003326 76.26942 29.917389 76.074104Q29.831451 75.87879 29.831451 75.23817L29.831451 72.84754L29.315826 72.84754L29.315826 72.30067L29.831451 72.30067L29.831451 71.28504L30.534576 70.86317L30.534576 72.30067L31.237701 72.30067L31.237701 72.84754L30.534576 72.84754L30.534576 75.28504Q30.534576 75.58192 30.573639 75.667854Q30.612701 75.75379 30.690826 75.80067Q30.768951 75.84754 30.925201 75.84754Q31.050201 75.84754 31.237701 75.83192ZM31.929108 76.45692L31.929108 72.30067L32.554108 72.30067L32.554108 72.89442Q32.757233 72.58192 33.077545 72.39442Q33.397858 72.20692 33.819733 72.20692Q34.272858 72.20692 34.569733 72.40223Q34.866608 72.59754 34.991608 72.94129Q35.475983 72.20692 36.272858 72.20692Q36.882233 72.20692 37.21817 72.55067Q37.554108 72.89442 37.554108 73.61317L37.554108 76.45692L36.850983 76.45692L36.850983 73.84754Q36.850983 73.42567 36.78067 73.23817Q36.710358 73.05067 36.53067 72.93348Q36.350983 72.81629 36.116608 72.81629Q35.679108 72.81629 35.390045 73.11317Q35.100983 73.41004 35.100983 74.05067L35.100983 76.45692L34.397858 76.45692L34.397858 73.75379Q34.397858 73.28504 34.225983 73.05067Q34.054108 72.81629 33.663483 72.81629Q33.366608 72.81629 33.108795 72.97254Q32.850983 73.12879 32.741608 73.43348Q32.632233 73.73817 32.632233 74.30067L32.632233 76.45692L31.929108 76.45692ZM41.296295 75.94129Q40.90567 76.26942 40.546295 76.41004Q40.18692 76.55067 39.765045 76.55067Q39.09317 76.55067 38.725983 76.21473Q38.358795 75.87879 38.358795 75.36317Q38.358795 75.05067 38.491608 74.80067Q38.62442 74.55067 38.850983 74.40223Q39.077545 74.25379 39.358795 74.17567Q39.56192 74.11317 39.983795 74.06629Q40.84317 73.95692 41.233795 73.81629Q41.24942 73.67567 41.24942 73.64442Q41.24942 73.20692 41.046295 73.03504Q40.78067 72.80067 40.24942 72.80067Q39.74942 72.80067 39.515045 72.97254Q39.28067 73.14442 39.15567 73.58192L38.46817 73.48817Q38.56192 73.05067 38.78067 72.77723Q38.99942 72.50379 39.40567 72.355354Q39.81192 72.20692 40.34317 72.20692Q40.87442 72.20692 41.210358 72.33192Q41.546295 72.45692 41.702545 72.65223Q41.858795 72.84754 41.921295 73.12879Q41.952545 73.31629 41.952545 73.78504L41.952545 74.72254Q41.952545 75.69129 41.99942 75.95692Q42.046295 76.22254 42.171295 76.45692L41.43692 76.45692Q41.327545 76.23817 41.296295 75.94129ZM41.233795 74.37879Q40.858795 74.53504 40.09317 74.64442Q39.65567 74.70692 39.475983 74.78504Q39.296295 74.86317 39.202545 75.011604Q39.108795 75.16004 39.108795 75.34754Q39.108795 75.62879 39.319733 75.81629Q39.53067 76.00379 39.93692 76.00379Q40.34317 76.00379 40.663483 75.824104Q40.983795 75.64442 41.12442 75.33192Q41.233795 75.09754 41.233795 74.62879L41.233795 74.37879ZM42.76114 75.22254L43.44864 75.11317Q43.51114 75.51942 43.776764 75.74598Q44.04239 75.97254 44.526764 75.97254Q45.01114 75.97254 45.245514 75.77723Q45.47989 75.58192 45.47989 75.31629Q45.47989 75.06629 45.276764 74.94129Q45.13614 74.84754 44.558014 74.69129Q43.776764 74.50379 43.47989 74.36317Q43.183014 74.22254 43.026764 73.96473Q42.870514 73.70692 42.870514 73.41004Q42.870514 73.12879 43.003326 72.89442Q43.13614 72.66004 43.35489 72.50379Q43.51114 72.37879 43.79239 72.292854Q44.07364 72.20692 44.401764 72.20692Q44.88614 72.20692 45.26114 72.34754Q45.63614 72.48817 45.808014 72.730354Q45.97989 72.97254 46.04239 73.37879L45.35489 73.47254Q45.308014 73.14442 45.089264 72.96473Q44.870514 72.78504 44.44864 72.78504Q43.964264 72.78504 43.76114 72.949104Q43.558014 73.11317 43.558014 73.33192Q43.558014 73.45692 43.63614 73.56629Q43.72989 73.69129 43.91739 73.75379Q44.01114 73.80067 44.526764 73.94129Q45.276764 74.14442 45.57364 74.26942Q45.870514 74.39442 46.034576 74.636604Q46.19864 74.87879 46.19864 75.23817Q46.19864 75.58192 45.995514 75.89442Q45.79239 76.20692 45.409576 76.37879Q45.026764 76.55067 44.526764 76.55067Q43.72989 76.55067 43.3002 76.21473Q42.870514 75.87879 42.76114 75.22254Z" fill-rule="nonzero" fill="#000000"></path><path d="M11.114655 82.86317Q11.114655 81.44129 11.88028 80.636604Q12.645905 79.83192 13.84903 79.83192Q14.645905 79.83192 15.28653 80.20692Q15.927155 80.58192 16.25528 81.261604Q16.583405 81.94129 16.583405 82.80067Q16.583405 83.67567 16.231842 84.36317Q15.88028 85.05067 15.239655 85.40223Q14.59903 85.75379 13.84903 85.75379Q13.03653 85.75379 12.403717 85.36317Q11.770905 84.97254 11.44278 84.30067Q11.114655 83.62879 11.114655 82.86317ZM11.895905 82.87879Q11.895905 83.91004 12.450592 84.511604Q13.00528 85.11317 13.84903 85.11317Q14.708405 85.11317 15.25528 84.511604Q15.802155 83.91004 15.802155 82.80067Q15.802155 82.09754 15.56778 81.574104Q15.333405 81.05067 14.88028 80.76942Q14.427155 80.48817 13.864655 80.48817Q13.052155 80.48817 12.47403 81.03504Q11.895905 81.58192 11.895905 82.87879ZM17.46231 85.66004L17.46231 81.50379L18.102936 81.50379L18.102936 82.14442Q18.33731 81.69129 18.548248 81.55067Q18.759186 81.41004 18.99356 81.41004Q19.352936 81.41004 19.727936 81.64442L19.477936 82.30067Q19.227936 82.14442 18.96231 82.14442Q18.727936 82.14442 18.548248 82.28504Q18.36856 82.42567 18.290436 82.66004Q18.165436 83.03504 18.165436 83.48817L18.165436 85.66004L17.46231 85.66004ZM20.141998 85.66004L20.141998 81.50379L20.766998 81.50379L20.766998 82.09754Q21.235748 81.41004 22.095123 81.41004Q22.470123 81.41004 22.782623 81.55067Q23.095123 81.69129 23.251373 81.91004Q23.407623 82.12879 23.470123 82.42567Q23.516998 82.61317 23.516998 83.11317L23.516998 85.66004L22.813873 85.66004L22.813873 83.12879Q22.813873 82.70692 22.727936 82.49598Q22.641998 82.28504 22.43106 82.15223Q22.220123 82.01942 21.938873 82.01942Q21.501373 82.01942 21.173248 82.30848Q20.845123 82.59754 20.845123 83.39442L20.845123 85.66004L20.141998 85.66004ZM27.294342 85.14442Q26.903717 85.47254 26.544342 85.61317Q26.184967 85.75379 25.763092 85.75379Q25.091217 85.75379 24.72403 85.417854Q24.356842 85.08192 24.356842 84.56629Q24.356842 84.25379 24.489655 84.00379Q24.622467 83.75379 24.84903 83.605354Q25.075592 83.45692 25.356842 83.37879Q25.559967 83.31629 25.981842 83.26942Q26.841217 83.16004 27.231842 83.01942Q27.247467 82.87879 27.247467 82.84754Q27.247467 82.41004 27.044342 82.23817Q26.778717 82.00379 26.247467 82.00379Q25.747467 82.00379 25.513092 82.17567Q25.278717 82.34754 25.153717 82.78504L24.466217 82.69129Q24.559967 82.25379 24.778717 81.980354Q24.997467 81.70692 25.403717 81.55848Q25.809967 81.41004 26.341217 81.41004Q26.872467 81.41004 27.208405 81.53504Q27.544342 81.66004 27.700592 81.855354Q27.856842 82.05067 27.919342 82.33192Q27.950592 82.51942 27.950592 82.98817L27.950592 83.92567Q27.950592 84.89442 27.997467 85.16004Q28.044342 85.42567 28.169342 85.66004L27.434967 85.66004Q27.325592 85.44129 27.294342 85.14442ZM27.231842 83.58192Q26.856842 83.73817 26.091217 83.84754Q25.653717 83.91004 25.47403 83.98817Q25.294342 84.06629 25.200592 84.21473Q25.106842 84.36317 25.106842 84.55067Q25.106842 84.83192 25.31778 85.01942Q25.528717 85.20692 25.934967 85.20692Q26.341217 85.20692 26.66153 85.02723Q26.981842 84.84754 27.122467 84.53504Q27.231842 84.30067 27.231842 83.83192L27.231842 83.58192ZM29.040436 85.66004L29.040436 81.50379L29.665436 81.50379L29.665436 82.09754Q29.86856 81.78504 30.188873 81.59754Q30.509186 81.41004 30.93106 81.41004Q31.384186 81.41004 31.68106 81.605354Q31.977936 81.80067 32.102936 82.14442Q32.58731 81.41004 33.384186 81.41004Q33.99356 81.41004 34.3295 81.75379Q34.665436 82.09754 34.665436 82.81629L34.665436 85.66004L33.96231 85.66004L33.96231 83.05067Q33.96231 82.62879 33.892 82.44129Q33.821686 82.25379 33.642 82.136604Q33.46231 82.01942 33.227936 82.01942Q32.790436 82.01942 32.501373 82.31629Q32.21231 82.61317 32.21231 83.25379L32.21231 85.66004L31.509186 85.66004L31.509186 82.95692Q31.509186 82.48817 31.33731 82.25379Q31.165436 82.01942 30.77481 82.01942Q30.477936 82.01942 30.220123 82.17567Q29.96231 82.33192 29.852936 82.636604Q29.74356 82.94129 29.74356 83.50379L29.74356 85.66004L29.040436 85.66004ZM38.54825 84.31629L39.267 84.41004Q39.095123 85.05067 38.634186 85.40223Q38.17325 85.75379 37.438873 85.75379Q36.532623 85.75379 36.001373 85.19129Q35.470123 84.62879 35.470123 83.61317Q35.470123 82.56629 36.009186 81.98817Q36.54825 81.41004 37.407623 81.41004Q38.23575 81.41004 38.767 81.980354Q39.29825 82.55067 39.29825 83.58192Q39.29825 83.64442 39.282623 83.76942L36.188873 83.76942Q36.23575 84.44129 36.5795 84.80848Q36.92325 85.17567 37.4545 85.17567Q37.8295 85.17567 38.102936 84.97254Q38.376373 84.76942 38.54825 84.31629ZM36.23575 83.19129L38.54825 83.19129Q38.501373 82.66004 38.282623 82.39442Q37.9545 81.98817 37.407623 81.98817Q36.92325 81.98817 36.595123 82.31629Q36.267 82.64442 36.23575 83.19129ZM40.153717 85.66004L40.153717 81.50379L40.778717 81.50379L40.778717 82.09754Q41.247467 81.41004 42.106842 81.41004Q42.481842 81.41004 42.794342 81.55067Q43.106842 81.69129 43.263092 81.91004Q43.419342 82.12879 43.481842 82.42567Q43.528717 82.61317 43.528717 83.11317L43.528717 85.66004L42.825592 85.66004L42.825592 83.12879Q42.825592 82.70692 42.739655 82.49598Q42.653717 82.28504 42.44278 82.15223Q42.231842 82.01942 41.950592 82.01942Q41.513092 82.01942 41.184967 82.30848Q40.856842 82.59754 40.856842 83.39442L40.856842 85.66004L40.153717 85.66004ZM46.134186 85.03504L46.24356 85.64442Q45.946686 85.72254 45.71231 85.72254Q45.321686 85.72254 45.11075 85.59754Q44.89981 85.47254 44.813873 85.27723Q44.727936 85.08192 44.727936 84.44129L44.727936 82.05067L44.21231 82.05067L44.21231 81.50379L44.727936 81.50379L44.727936 80.48817L45.43106 80.06629L45.43106 81.50379L46.134186 81.50379L46.134186 82.05067L45.43106 82.05067L45.43106 84.48817Q45.43106 84.78504 45.470123 84.87098Q45.509186 84.95692 45.58731 85.00379Q45.665436 85.05067 45.821686 85.05067Q45.946686 85.05067 46.134186 85.03504Z" fill-rule="nonzero" fill="#000000"></path></svg>

