<?xml version="1.0" standalone="yes"?>

<svg version="1.1" viewBox="0.0 0.0 667.0 164.0" fill="none" stroke="none" stroke-linecap="square" stroke-miterlimit="10" clip-path="url(#p.0)" xmlns="http://www.w3.org/2000/svg" xmlns:xlink="http://www.w3.org/1999/xlink"><clipPath id="p.0"><path d="M0 0L667.0 0L667.0 164.0L0 164.0L0 0Z" clip-rule="nonzero"></path></clipPath><path stroke="#000000" stroke-width="2.0" stroke-linejoin="round" stroke-linecap="butt" d="M98.05506 44.84454L98.05506 44.84454C140.14177 44.948906 174.21748 60.629517 174.1653 79.868164L174.1653 79.868164C174.14023 89.10688 166.08751 97.9473 151.77864 104.444626C137.46976 110.94195 118.07683 114.56395 97.86608 114.51383L97.86608 114.51383C55.779373 114.40946 21.703661 98.72885 21.755846 79.49021L21.755846 79.49021C21.808031 60.251564 55.968353 44.74017 98.05506 44.84454Z" fill-rule="nonzero"></path><path stroke="#000000" stroke-width="2.0" stroke-linejoin="round" stroke-linecap="butt" d="M554.6116 79.679184L554.6116 79.679184C554.6116 50.37765 578.3651 26.624065 607.6667 26.624065L607.6667 26.624065C621.73773 26.624065 635.23254 32.213787 645.1823 42.16355C655.1321 52.113316 660.7218 65.60809 660.7218 79.679184L660.7218 79.679184C660.7218 108.98072 636.9682 132.7343 607.6667 132.7343L607.6667 132.7343C578.3651 132.7343 554.6116 108.98072 554.6116 79.679184Z" fill-rule="nonzero"></path><path stroke="#999999" stroke-width="2.0" stroke-linejoin="round" stroke-linecap="butt" d="M192.90814 79.679184L519.0184 79.679184" fill-rule="evenodd"></path><path fill="#999999" stroke="#999999" stroke-width="2.0" stroke-linecap="butt" d="M519.0184 82.98265L528.09454 79.679184L519.0184 76.37572Z" fill-rule="evenodd"></path><path stroke="#000000" stroke-width="2.0" stroke-linejoin="round" stroke-linecap="butt" d="M21.755905 121.21785L21.755905 152.30446" fill-rule="nonzero"></path><path stroke="#000000" stroke-width="2.0" stroke-linejoin="round" stroke-linecap="butt" d="M174.16536 123.35958L174.16536 152.30446" fill-rule="nonzero"></path><path fill="#000000" d="M47.780487 137.63454L48.952362 137.52516Q49.030487 138.22829 49.335175 138.6736Q49.639862 139.11891 50.272675 139.39235Q50.905487 139.66579 51.702362 139.66579Q52.405487 139.66579 52.94455 139.46266Q53.483612 139.25954 53.749237 138.89235Q54.014862 138.52516 54.014862 138.08766Q54.014862 137.65016 53.75705 137.32204Q53.499237 136.99391 52.921112 136.77516Q52.546112 136.63454 51.264862 136.32204Q49.983612 136.00954 49.467987 135.74391Q48.796112 135.40016 48.467987 134.87672Q48.139862 134.35329 48.139862 133.71266Q48.139862 133.00954 48.5383 132.40016Q48.936737 131.79079 49.710175 131.47047Q50.483612 131.15016 51.421112 131.15016Q52.452362 131.15016 53.241425 131.4861Q54.030487 131.82204 54.460175 132.47047Q54.889862 133.11891 54.921112 133.93141L53.733612 134.02516Q53.639862 133.13454 53.092987 132.68922Q52.546112 132.24391 51.467987 132.24391Q50.358612 132.24391 49.842987 132.65016Q49.327362 133.05641 49.327362 133.63454Q49.327362 134.13454 49.686737 134.46266Q50.046112 134.79079 51.546112 135.12672Q53.046112 135.46266 53.608612 135.71266Q54.421112 136.08766 54.803925 136.66579Q55.186737 137.24391 55.186737 137.99391Q55.186737 138.72829 54.764862 139.38454Q54.342987 140.04079 53.546112 140.40797Q52.749237 140.77516 51.749237 140.77516Q50.483612 140.77516 49.63205 140.40797Q48.780487 140.04079 48.296112 139.2986Q47.811737 138.55641 47.780487 137.63454ZM59.451492 139.60329L59.607742 140.60329Q59.123367 140.71266 58.748367 140.71266Q58.123367 140.71266 57.779617 140.50954Q57.435867 140.30641 57.295242 139.9861Q57.154617 139.66579 57.154617 138.65016L57.154617 134.75954L56.326492 134.75954L56.326492 133.88454L57.154617 133.88454L57.154617 132.21266L58.295242 131.52516L58.295242 133.88454L59.451492 133.88454L59.451492 134.75954L58.295242 134.75954L58.295242 138.71266Q58.295242 139.19704 58.357742 139.33766Q58.420242 139.47829 58.553055 139.55641Q58.685867 139.63454 58.935867 139.63454Q59.138992 139.63454 59.451492 139.60329ZM60.638855 140.61891L60.638855 133.88454L61.670105 133.88454L61.670105 134.90016Q62.06073 134.18141 62.396667 133.95485Q62.732605 133.72829 63.12323 133.72829Q63.701355 133.72829 64.295105 134.08766L63.90448 135.15016Q63.482605 134.90016 63.076355 134.90016Q62.701355 134.90016 62.396667 135.12672Q62.09198 135.35329 61.96698 135.75954Q61.77948 136.36891 61.77948 137.08766L61.77948 140.61891L60.638855 140.61891ZM69.702225 138.44704L70.889725 138.58766Q70.608475 139.63454 69.85066 140.20485Q69.09285 140.77516 67.920975 140.77516Q66.4366 140.77516 65.56941 139.8611Q64.702225 138.94704 64.702225 137.30641Q64.702225 135.60329 65.58504 134.66579Q66.46785 133.72829 67.858475 133.72829Q69.21785 133.72829 70.06941 134.65016Q70.920975 135.57204 70.920975 137.22829Q70.920975 137.33766 70.920975 137.54079L65.889725 137.54079Q65.952225 138.65016 66.514725 139.24391Q67.077225 139.83766 67.920975 139.83766Q68.5616 139.83766 69.00691 139.50172Q69.452225 139.16579 69.702225 138.44704ZM65.952225 136.60329L69.71785 136.60329Q69.639725 135.74391 69.28035 135.32204Q68.733475 134.66579 67.8741 134.66579Q67.077225 134.66579 66.545975 135.18922Q66.014725 135.71266 65.952225 136.60329ZM75.005325 139.60329L75.161575 140.60329Q74.6772 140.71266 74.3022 140.71266Q73.6772 140.71266 73.33345 140.50954Q72.9897 140.30641 72.849075 139.9861Q72.70845 139.66579 72.70845 138.65016L72.70845 134.75954L71.880325 134.75954L71.880325 133.88454L72.70845 133.88454L72.70845 132.21266L73.849075 131.52516L73.849075 133.88454L75.005325 133.88454L75.005325 134.75954L73.849075 134.75954L73.849075 138.71266Q73.849075 139.19704 73.911575 139.33766Q73.974075 139.47829 74.10689 139.55641Q74.2397 139.63454 74.4897 139.63454Q74.692825 139.63454 75.005325 139.60329ZM80.59894 138.15016L81.72394 138.29079Q81.55206 139.46266 80.78644 140.11891Q80.02081 140.77516 78.92706 140.77516Q77.53644 140.77516 76.7005 139.86891Q75.86456 138.96266 75.86456 137.27516Q75.86456 136.18141 76.22394 135.3611Q76.58331 134.54079 77.31769 134.13454Q78.05206 133.72829 78.92706 133.72829Q80.02081 133.72829 80.72394 134.28297Q81.42706 134.83766 81.61456 135.85329L80.50519 136.02516Q80.34894 135.35329 79.9505 135.00954Q79.55206 134.66579 78.97394 134.66579Q78.11456 134.66579 77.5755 135.28297Q77.03644 135.90016 77.03644 137.24391Q77.03644 138.60329 77.55206 139.22047Q78.06769 139.83766 78.91144 139.83766Q79.58331 139.83766 80.03644 139.4236Q80.48956 139.00954 80.59894 138.15016ZM82.872375 140.61891L82.872375 131.30641L84.013 131.30641L84.013 134.65016Q84.809875 133.72829 86.028625 133.72829Q86.778625 133.72829 87.33331 134.02516Q87.888 134.32204 88.122375 134.83766Q88.35675 135.35329 88.35675 136.35329L88.35675 140.61891L87.216125 140.61891L87.216125 136.35329Q87.216125 135.49391 86.84894 135.10329Q86.48175 134.71266 85.79425 134.71266Q85.29425 134.71266 84.841125 134.97047Q84.388 135.22829 84.2005 135.68141Q84.013 136.13454 84.013 136.93141L84.013 140.61891L82.872375 140.61891ZM94.894226 138.44704L96.081726 138.58766Q95.800476 139.63454 95.04266 140.20485Q94.28485 140.77516 93.112976 140.77516Q91.6286 140.77516 90.76141 139.8611Q89.894226 138.94704 89.894226 137.30641Q89.894226 135.60329 90.77704 134.66579Q91.65985 133.72829 93.050476 133.72829Q94.40985 133.72829 95.26141 134.65016Q96.112976 135.57204 96.112976 137.22829Q96.112976 137.33766 96.112976 137.54079L91.081726 137.54079Q91.144226 138.65016 91.706726 139.24391Q92.269226 139.83766 93.112976 139.83766Q93.7536 139.83766 94.19891 139.50172Q94.644226 139.16579 94.894226 138.44704ZM91.144226 136.60329L94.90985 136.60329Q94.831726 135.74391 94.47235 135.32204Q93.925476 134.66579 93.0661 134.66579Q92.269226 134.66579 91.737976 135.18922Q91.206726 135.71266 91.144226 136.60329ZM102.07233 140.61891L102.07233 139.77516Q101.4317 140.77516 100.1817 140.77516Q99.38483 140.77516 98.70514 140.32985Q98.02545 139.88454 97.65045 139.08766Q97.27545 138.29079 97.27545 137.25954Q97.27545 136.24391 97.6192 135.4236Q97.96295 134.60329 98.63483 134.16579Q99.3067 133.72829 100.13483 133.72829Q100.7442 133.72829 101.220764 133.9861Q101.69733 134.24391 101.9942 134.65016L101.9942 131.30641L103.13483 131.30641L103.13483 140.61891L102.07233 140.61891ZM98.46295 137.25954Q98.46295 138.55641 99.002014 139.19704Q99.54108 139.83766 100.29108 139.83766Q101.04108 139.83766 101.564514 139.22047Q102.08795 138.60329 102.08795 137.35329Q102.08795 135.96266 101.5567 135.31422Q101.02545 134.66579 100.2442 134.66579Q99.47858 134.66579 98.970764 135.29079Q98.46295 135.91579 98.46295 137.25954ZM108.90654 140.61891L108.90654 131.30641L110.140915 131.30641L110.140915 139.52516L114.71904 139.52516L114.71904 140.61891L108.90654 140.61891ZM120.83464 138.44704L122.02214 138.58766Q121.74089 139.63454 120.98308 140.20485Q120.225266 140.77516 119.05339 140.77516Q117.569016 140.77516 116.70183 139.8611Q115.83464 138.94704 115.83464 137.30641Q115.83464 135.60329 116.71745 134.66579Q117.600266 133.72829 118.99089 133.72829Q120.350266 133.72829 121.20183 134.65016Q122.05339 135.57204 122.05339 137.22829Q122.05339 137.33766 122.05339 137.54079L117.02214 137.54079Q117.08464 138.65016 117.64714 139.24391Q118.20964 139.83766 119.05339 139.83766Q119.694016 139.83766 120.13933 139.50172Q120.58464 139.16579 120.83464 138.44704ZM117.08464 136.60329L120.850266 136.60329Q120.77214 135.74391 120.412766 135.32204Q119.86589 134.66579 119.006516 134.66579Q118.20964 134.66579 117.67839 135.18922Q117.14714 135.71266 117.08464 136.60329ZM123.63774 140.61891L123.63774 133.88454L124.66899 133.88454L124.66899 134.83766Q125.403366 133.72829 126.809616 133.72829Q127.41899 133.72829 127.9268 133.94704Q128.43462 134.16579 128.69243 134.51735Q128.95024 134.86891 129.04399 135.36891Q129.10649 135.68141 129.10649 136.47829L129.10649 140.61891L127.965866 140.61891L127.965866 136.52516Q127.965866 135.82204 127.83305 135.47829Q127.70024 135.13454 127.3643 134.9236Q127.028366 134.71266 126.57524 134.71266Q125.840866 134.71266 125.309616 135.1736Q124.778366 135.63454 124.778366 136.93141L124.778366 140.61891L123.63774 140.61891ZM130.83147 141.18141L131.95647 141.33766Q132.01897 141.85329 132.33147 142.08766Q132.76897 142.41579 133.50334 142.41579Q134.28459 142.41579 134.72209 142.09547Q135.15959 141.77516 135.30022 141.19704Q135.39397 140.85329 135.39397 139.74391Q134.64397 140.61891 133.51897 140.61891Q132.12834 140.61891 131.37053 139.61891Q130.61272 138.61891 130.61272 137.21266Q130.61272 136.24391 130.96428 135.43141Q131.31584 134.61891 131.97209 134.1736Q132.62834 133.72829 133.53459 133.72829Q134.72209 133.72829 135.50334 134.69704L135.50334 133.88454L136.55022 133.88454L136.55022 139.69704Q136.55022 141.27516 136.2299 141.93141Q135.90959 142.58766 135.21428 142.97047Q134.51897 143.35329 133.50334 143.35329Q132.30022 143.35329 131.55803 142.81422Q130.81584 142.27516 130.83147 141.18141ZM131.78459 137.13454Q131.78459 138.44704 132.30803 139.05641Q132.83147 139.66579 133.62834 139.66579Q134.42522 139.66579 134.95647 139.06422Q135.48772 138.46266 135.48772 137.16579Q135.48772 135.93141 134.94084 135.2986Q134.39397 134.66579 133.61272 134.66579Q132.84709 134.66579 132.31584 135.29079Q131.78459 135.91579 131.78459 137.13454ZM140.96269 139.60329L141.11894 140.60329Q140.63457 140.71266 140.25957 140.71266Q139.63457 140.71266 139.29082 140.50954Q138.94707 140.30641 138.80644 139.9861Q138.66582 139.66579 138.66582 138.65016L138.66582 134.75954L137.83769 134.75954L137.83769 133.88454L138.66582 133.88454L138.66582 132.21266L139.80644 131.52516L139.80644 133.88454L140.96269 133.88454L140.96269 134.75954L139.80644 134.75954L139.80644 138.71266Q139.80644 139.19704 139.86894 139.33766Q139.93144 139.47829 140.06425 139.55641Q140.19707 139.63454 140.44707 139.63454Q140.65019 139.63454 140.96269 139.60329ZM142.16568 140.61891L142.16568 131.30641L143.3063 131.30641L143.3063 134.65016Q144.10318 133.72829 145.32193 133.72829Q146.07193 133.72829 146.62662 134.02516Q147.1813 134.32204 147.41568 134.83766Q147.65005 135.35329 147.65005 136.35329L147.65005 140.61891L146.50943 140.61891L146.50943 136.35329Q146.50943 135.49391 146.14224 135.10329Q145.77505 134.71266 145.08755 134.71266Q144.58755 134.71266 144.13443 134.97047Q143.6813 135.22829 143.4938 135.68141Q143.3063 136.13454 143.3063 136.93141L143.3063 140.61891L142.16568 140.61891Z" fill-rule="nonzero"></path><path stroke="#000000" stroke-width="2.0" stroke-linejoin="round" stroke-linecap="butt" d="M22.506561 136.22047L45.56168 136.22047" fill-rule="nonzero"></path><path stroke="#000000" stroke-width="2.0" stroke-linejoin="round" stroke-linecap="butt" d="M174.15224 136.22047L152.16798 136.22047" fill-rule="nonzero"></path><path stroke="#000000" stroke-width="2.0" stroke-linejoin="round" stroke-linecap="butt" d="M174.59656 6.7238035L174.59656 37.810417" fill-rule="nonzero"></path><path stroke="#000000" stroke-width="2.0" stroke-linejoin="round" stroke-linecap="butt" d="M554.6116 7.7946696L554.6116 36.73955" fill-rule="nonzero"></path><path fill="#000000" d="M303.79242 26.665548L303.79242 17.353048L306.99554 17.353048Q308.0893 17.353048 308.6518 17.493673Q309.4643 17.681173 310.0268 18.165548Q310.76117 18.774923 311.12836 19.743673Q311.49554 20.712423 311.49554 21.962423Q311.49554 23.024923 311.24554 23.845236Q310.99554 24.665548 310.60492 25.196798Q310.2143 25.728048 309.75336 26.040548Q309.29242 26.353048 308.64398 26.509298Q307.99554 26.665548 307.1518 26.665548L303.79242 26.665548ZM305.0268 25.571798L307.01117 25.571798Q307.93304 25.571798 308.45648 25.399923Q308.97992 25.228048 309.29242 24.915548Q309.72992 24.478048 309.9721 23.73586Q310.2143 22.993673 310.2143 21.946798Q310.2143 20.478048 309.73773 19.696798Q309.26117 18.915548 308.57367 18.649923Q308.07367 18.462423 306.97992 18.462423L305.0268 18.462423L305.0268 25.571798ZM313.27695 18.681173L313.27695 17.353048L314.41757 17.353048L314.41757 18.681173L313.27695 18.681173ZM313.27695 26.665548L313.27695 19.931173L314.41757 19.931173L314.41757 26.665548L313.27695 26.665548ZM315.7849 24.649923L316.9099 24.478048Q317.00366 25.149923 317.44116 25.51711Q317.87866 25.884298 318.6599 25.884298Q319.44116 25.884298 319.82397 25.563986Q320.2068 25.243673 320.2068 24.806173Q320.2068 24.415548 319.86304 24.196798Q319.62866 24.040548 318.69116 23.806173Q317.44116 23.493673 316.9568 23.259298Q316.4724 23.024923 316.2224 22.618673Q315.9724 22.212423 315.9724 21.712423Q315.9724 21.259298 316.17554 20.876486Q316.37866 20.493673 316.73804 20.243673Q317.00366 20.040548 317.4646 19.907736Q317.92554 19.774923 318.4568 19.774923Q319.23804 19.774923 319.8396 20.001486Q320.44116 20.228048 320.73022 20.618673Q321.0193 21.009298 321.12866 21.665548L320.00366 21.821798Q319.92554 21.290548 319.56616 21.001486Q319.2068 20.712423 318.5349 20.712423Q317.75366 20.712423 317.4099 20.970236Q317.06616 21.228048 317.06616 21.587423Q317.06616 21.806173 317.2068 21.978048Q317.3474 22.165548 317.6443 22.290548Q317.81616 22.353048 318.6599 22.571798Q319.87866 22.899923 320.35522 23.103048Q320.8318 23.306173 321.10522 23.70461Q321.37866 24.103048 321.37866 24.681173Q321.37866 25.259298 321.04272 25.759298Q320.7068 26.259298 320.0818 26.540548Q319.4568 26.821798 318.6599 26.821798Q317.3474 26.821798 316.6599 26.274923Q315.9724 25.728048 315.7849 24.649923ZM325.4021 25.649923L325.55835 26.649923Q325.07397 26.759298 324.69897 26.759298Q324.07397 26.759298 323.73022 26.556173Q323.38647 26.353048 323.24585 26.032736Q323.10522 25.712423 323.10522 24.696798L323.10522 20.806173L322.2771 20.806173L322.2771 19.931173L323.10522 19.931173L323.10522 18.259298L324.24585 17.571798L324.24585 19.931173L325.4021 19.931173L325.4021 20.806173L324.24585 20.806173L324.24585 24.759298Q324.24585 25.243673 324.30835 25.384298Q324.37085 25.524923 324.50366 25.603048Q324.63647 25.681173 324.88647 25.681173Q325.0896 25.681173 325.4021 25.649923ZM330.9957 25.837423Q330.3707 26.368673 329.78476 26.595236Q329.19882 26.821798 328.52695 26.821798Q327.40195 26.821798 326.8082 26.274923Q326.21445 25.728048 326.21445 24.884298Q326.21445 24.399923 326.441 23.98586Q326.66757 23.571798 327.03476 23.321798Q327.40195 23.071798 327.85507 22.946798Q328.1832 22.868673 328.8707 22.774923Q330.2457 22.618673 330.90195 22.384298Q330.91757 22.149923 330.91757 22.087423Q330.91757 21.384298 330.58945 21.103048Q330.15195 20.712423 329.29257 20.712423Q328.48007 20.712423 328.09726 20.993673Q327.71445 21.274923 327.52695 21.993673L326.41757 21.853048Q326.5582 21.134298 326.90976 20.688986Q327.26132 20.243673 327.92538 20.009298Q328.58945 19.774923 329.44882 19.774923Q330.32382 19.774923 330.86288 19.978048Q331.40195 20.181173 331.65195 20.48586Q331.90195 20.790548 332.01132 21.259298Q332.0582 21.556173 332.0582 22.321798L332.0582 23.837423Q332.0582 25.431173 332.13632 25.853048Q332.21445 26.274923 332.41757 26.665548L331.23007 26.665548Q331.0582 26.306173 330.9957 25.837423ZM330.90195 23.274923Q330.27695 23.540548 329.04257 23.712423Q328.33945 23.821798 328.04257 23.946798Q327.7457 24.071798 327.58945 24.313986Q327.4332 24.556173 327.4332 24.853048Q327.4332 25.306173 327.77695 25.61086Q328.1207 25.915548 328.79257 25.915548Q329.44882 25.915548 329.96445 25.626486Q330.48007 25.337423 330.73007 24.837423Q330.90195 24.462423 330.90195 23.696798L330.90195 23.274923ZM334.01755 26.665548L334.01755 19.931173L335.0488 19.931173L335.0488 20.884298Q335.78317 19.774923 337.18942 19.774923Q337.7988 19.774923 338.3066 19.993673Q338.81442 20.212423 339.07224 20.563986Q339.33005 20.915548 339.4238 21.415548Q339.4863 21.728048 339.4863 22.524923L339.4863 26.665548L338.34567 26.665548L338.34567 22.571798Q338.34567 21.868673 338.21286 21.524923Q338.08005 21.181173 337.7441 20.970236Q337.40817 20.759298 336.95505 20.759298Q336.22067 20.759298 335.68942 21.220236Q335.15817 21.681173 335.15817 22.978048L335.15817 26.665548L334.01755 26.665548ZM345.82065 24.196798L346.94565 24.337423Q346.77377 25.509298 346.00815 26.165548Q345.24252 26.821798 344.14877 26.821798Q342.75815 26.821798 341.9222 25.915548Q341.08627 25.009298 341.08627 23.321798Q341.08627 22.228048 341.44565 21.407736Q341.80502 20.587423 342.5394 20.181173Q343.27377 19.774923 344.14877 19.774923Q345.24252 19.774923 345.94565 20.32961Q346.64877 20.884298 346.83627 21.899923L345.7269 22.071798Q345.57065 21.399923 345.1722 21.056173Q344.77377 20.712423 344.19565 20.712423Q343.33627 20.712423 342.7972 21.32961Q342.25815 21.946798 342.25815 23.290548Q342.25815 24.649923 342.77377 25.26711Q343.2894 25.884298 344.13315 25.884298Q344.80502 25.884298 345.25815 25.470236Q345.71127 25.056173 345.82065 24.196798ZM352.70346 24.493673L353.89096 24.634298Q353.6097 25.681173 352.8519 26.251486Q352.0941 26.821798 350.9222 26.821798Q349.43784 26.821798 348.57065 25.907736Q347.70346 24.993673 347.70346 23.353048Q347.70346 21.649923 348.58627 20.712423Q349.4691 19.774923 350.8597 19.774923Q352.2191 19.774923 353.07065 20.696798Q353.9222 21.618673 353.9222 23.274923Q353.9222 23.384298 353.9222 23.587423L348.89096 23.587423Q348.95346 24.696798 349.51596 25.290548Q350.07846 25.884298 350.9222 25.884298Q351.56284 25.884298 352.00815 25.54836Q352.45346 25.212423 352.70346 24.493673ZM348.95346 22.649923L352.7191 22.649923Q352.64096 21.790548 352.2816 21.368673Q351.7347 20.712423 350.87534 20.712423Q350.07846 20.712423 349.5472 21.23586Q349.01596 21.759298 348.95346 22.649923ZM361.7252 26.665548L361.7252 18.462423L358.6627 18.462423L358.6627 17.353048L366.0377 17.353048L366.0377 18.462423L362.95956 18.462423L362.95956 26.665548L361.7252 26.665548ZM367.3353 26.665548L367.3353 19.931173L368.36655 19.931173L368.36655 20.946798Q368.75717 20.228048 369.0931 20.001486Q369.42905 19.774923 369.81967 19.774923Q370.3978 19.774923 370.99155 20.134298L370.60092 21.196798Q370.17905 20.946798 369.7728 20.946798Q369.3978 20.946798 369.0931 21.17336Q368.78842 21.399923 368.66342 21.806173Q368.47592 22.415548 368.47592 23.134298L368.47592 26.665548L367.3353 26.665548ZM376.1799 25.837423Q375.5549 26.368673 374.96896 26.595236Q374.38303 26.821798 373.71115 26.821798Q372.58615 26.821798 371.9924 26.274923Q371.39865 25.728048 371.39865 24.884298Q371.39865 24.399923 371.6252 23.98586Q371.85178 23.571798 372.21896 23.321798Q372.58615 23.071798 373.03928 22.946798Q373.3674 22.868673 374.0549 22.774923Q375.4299 22.618673 376.08615 22.384298Q376.10178 22.149923 376.10178 22.087423Q376.10178 21.384298 375.77365 21.103048Q375.33615 20.712423 374.47678 20.712423Q373.66428 20.712423 373.28146 20.993673Q372.89865 21.274923 372.71115 21.993673L371.60178 21.853048Q371.7424 21.134298 372.09396 20.688986Q372.44553 20.243673 373.1096 20.009298Q373.77365 19.774923 374.63303 19.774923Q375.50803 19.774923 376.0471 19.978048Q376.58615 20.181173 376.83615 20.48586Q377.08615 20.790548 377.19553 21.259298Q377.2424 21.556173 377.2424 22.321798L377.2424 23.837423Q377.2424 25.431173 377.32053 25.853048Q377.39865 26.274923 377.60178 26.665548L376.41428 26.665548Q376.2424 26.306173 376.1799 25.837423ZM376.08615 23.274923Q375.46115 23.540548 374.22678 23.712423Q373.52365 23.821798 373.22678 23.946798Q372.9299 24.071798 372.77365 24.313986Q372.6174 24.556173 372.6174 24.853048Q372.6174 25.306173 372.96115 25.61086Q373.3049 25.915548 373.97678 25.915548Q374.63303 25.915548 375.14865 25.626486Q375.66428 25.337423 375.91428 24.837423Q376.08615 24.462423 376.08615 23.696798L376.08615 23.274923ZM381.07675 26.665548L378.51425 19.931173L379.71738 19.931173L381.15488 23.962423Q381.38925 24.618673 381.59238 25.321798Q381.74863 24.790548 382.01425 24.040548L383.51425 19.931173L384.68613 19.931173L382.13925 26.665548L381.07675 26.665548ZM390.4752 24.493673L391.6627 24.634298Q391.38144 25.681173 390.62363 26.251486Q389.8658 26.821798 388.69394 26.821798Q387.20956 26.821798 386.34238 25.907736Q385.4752 24.993673 385.4752 23.353048Q385.4752 21.649923 386.358 20.712423Q387.2408 19.774923 388.63144 19.774923Q389.9908 19.774923 390.84238 20.696798Q391.69394 21.618673 391.69394 23.274923Q391.69394 23.384298 391.69394 23.587423L386.6627 23.587423Q386.7252 24.696798 387.2877 25.290548Q387.8502 25.884298 388.69394 25.884298Q389.33456 25.884298 389.77988 25.54836Q390.2252 25.212423 390.4752 24.493673ZM386.7252 22.649923L390.4908 22.649923Q390.4127 21.790548 390.0533 21.368673Q389.50644 20.712423 388.64706 20.712423Q387.8502 20.712423 387.31894 21.23586Q386.7877 21.759298 386.7252 22.649923ZM393.24704 26.665548L393.24704 17.353048L394.38766 17.353048L394.38766 26.665548L393.24704 26.665548ZM400.84875 24.493673L402.03625 24.634298Q401.755 25.681173 400.9972 26.251486Q400.23938 26.821798 399.0675 26.821798Q397.58313 26.821798 396.71594 25.907736Q395.84875 24.993673 395.84875 23.353048Q395.84875 21.649923 396.73157 20.712423Q397.61438 19.774923 399.005 19.774923Q400.36438 19.774923 401.21594 20.696798Q402.0675 21.618673 402.0675 23.274923Q402.0675 23.384298 402.0675 23.587423L397.03625 23.587423Q397.09875 24.696798 397.66125 25.290548Q398.22375 25.884298 399.0675 25.884298Q399.70813 25.884298 400.15344 25.54836Q400.59875 25.212423 400.84875 24.493673ZM397.09875 22.649923L400.86438 22.649923Q400.78625 21.790548 400.42688 21.368673Q399.88 20.712423 399.02063 20.712423Q398.22375 20.712423 397.6925 21.23586Q397.16125 21.759298 397.09875 22.649923ZM408.02686 26.665548L408.02686 25.821798Q407.38623 26.821798 406.13623 26.821798Q405.33936 26.821798 404.65967 26.376486Q403.97998 25.931173 403.60498 25.134298Q403.22998 24.337423 403.22998 23.306173Q403.22998 22.290548 403.57373 21.470236Q403.91748 20.649923 404.58936 20.212423Q405.26123 19.774923 406.08936 19.774923Q406.69873 19.774923 407.1753 20.032736Q407.65186 20.290548 407.94873 20.696798L407.94873 17.353048L409.08936 17.353048L409.08936 26.665548L408.02686 26.665548ZM404.41748 23.306173Q404.41748 24.603048 404.95654 25.243673Q405.4956 25.884298 406.2456 25.884298Q406.9956 25.884298 407.51904 25.26711Q408.04248 24.649923 408.04248 23.399923Q408.04248 22.009298 407.51123 21.36086Q406.97998 20.712423 406.19873 20.712423Q405.4331 20.712423 404.9253 21.337423Q404.41748 21.962423 404.41748 23.306173Z" fill-rule="nonzero"></path><path stroke="#000000" stroke-width="2.0" stroke-linejoin="round" stroke-linecap="butt" d="M177.71593 21.726429L297.9364 21.726429" fill-rule="nonzero"></path><path stroke="#000000" stroke-width="2.0" stroke-linejoin="round" stroke-linecap="butt" d="M554.59845 20.655561L416.89764 20.655561" fill-rule="nonzero"></path></svg>

